<svg width="25" height="19" viewBox="0 0 25 19" fill="none" xmlns="http://www.w3.org/2000/svg">
<path d="M23.3333 0.25H1.55556C1.143 0.25 0.747335 0.413888 0.455612 0.705612C0.163888 0.997335 0 1.393 0 1.80556V17.3611C0 17.7737 0.163888 18.1693 0.455612 18.4611C0.747335 18.7528 1.143 18.9167 1.55556 18.9167H23.3333C23.7459 18.9167 24.1416 18.7528 24.4333 18.4611C24.725 18.1693 24.8889 17.7737 24.8889 17.3611V1.80556C24.8889 1.393 24.725 0.997335 24.4333 0.705612C24.1416 0.413888 23.7459 0.25 23.3333 0.25ZM23.3333 1.80556V11.1389H1.55556V1.80556H23.3333ZM1.55556 17.3611V14.25H23.3333V17.3611H1.55556Z" fill="black" fill-opacity="0.4"/>
</svg>
