<svg width="34" height="27" viewBox="0 0 34 27" fill="none" xmlns="http://www.w3.org/2000/svg">
<path d="M31.7778 0.833344H2.22223C1.66232 0.833344 1.12535 1.05576 0.729445 1.45167C0.333534 1.84758 0.111115 2.38455 0.111115 2.94445V24.0556C0.111115 24.6155 0.333534 25.1524 0.729445 25.5483C1.12535 25.9443 1.66232 26.1667 2.22223 26.1667H31.7778C32.3377 26.1667 32.8747 25.9443 33.2706 25.5483C33.6665 25.1524 33.8889 24.6155 33.8889 24.0556V2.94445C33.8889 2.38455 33.6665 1.84758 33.2706 1.45167C32.8747 1.05576 32.3377 0.833344 31.7778 0.833344ZM31.7778 2.94445V15.6111H2.22223V2.94445H31.7778ZM2.22223 24.0556V19.8333H31.7778V24.0556H2.22223Z" fill="#414A61"/>
</svg>
