<svg width="26" height="26" viewBox="0 0 26 26" fill="none" xmlns="http://www.w3.org/2000/svg">
<path d="M8 20.5C6.625 20.5 5.5125 21.625 5.5125 23C5.5125 24.375 6.625 25.5 8 25.5C9.375 25.5 10.5 24.375 10.5 23C10.5 21.625 9.375 20.5 8 20.5ZM20.5 20.5C19.125 20.5 18.0125 21.625 18.0125 23C18.0125 24.375 19.125 25.5 20.5 25.5C21.875 25.5 23 24.375 23 23C23 21.625 21.875 20.5 20.5 20.5ZM18.6875 14.25C19.625 14.25 20.45 13.7375 20.875 12.9625L25.35 4.85C25.4553 4.66053 25.5094 4.44684 25.5068 4.23007C25.5042 4.0133 25.445 3.80096 25.3352 3.61408C25.2253 3.42719 25.0686 3.27223 24.8804 3.16452C24.6923 3.05682 24.4793 3.00011 24.2625 3H5.7625L4.5875 0.5H0.5V3H3L7.5 12.4875L5.8125 15.5375C4.9 17.2125 6.1 19.25 8 19.25H23V16.75H8L9.375 14.25H18.6875ZM6.95 5.5H22.1375L18.6875 11.75H9.9125L6.95 5.5Z" fill="black" fill-opacity="0.4"/>
</svg>
