<svg width="53" height="53" viewBox="0 0 53 53" fill="none" xmlns="http://www.w3.org/2000/svg">
<circle cx="26.5" cy="26.3333" r="25.5" stroke="black" stroke-opacity="0.4"/>
<path d="M22.4 35C20.8833 35 19.6042 34.4792 18.5625 33.4375C17.5208 32.3958 17 31.1167 17 29.6C17 28.9667 17.1083 28.35 17.325 27.75C17.5417 27.15 17.85 26.6083 18.25 26.125L21.8 21.85L19.375 17H32.625L30.2 21.85L33.75 26.125C34.15 26.6083 34.4583 27.15 34.675 27.75C34.8917 28.35 35 28.9667 35 29.6C35 31.1167 34.475 32.3958 33.425 33.4375C32.375 34.4792 31.1 35 29.6 35H22.4ZM26 30C25.45 30 24.9792 29.8042 24.5875 29.4125C24.1958 29.0208 24 28.55 24 28C24 27.45 24.1958 26.9792 24.5875 26.5875C24.9792 26.1958 25.45 26 26 26C26.55 26 27.0208 26.1958 27.4125 26.5875C27.8042 26.9792 28 27.45 28 28C28 28.55 27.8042 29.0208 27.4125 29.4125C27.0208 29.8042 26.55 30 26 30ZM23.625 21H28.375L29.375 19H22.625L23.625 21ZM22.4 33H29.6C30.55 33 31.3542 32.6708 32.0125 32.0125C32.6708 31.3542 33 30.55 33 29.6C33 29.2 32.9292 28.8125 32.7875 28.4375C32.6458 28.0625 32.45 27.725 32.2 27.425L28.525 23H23.5L19.8 27.4C19.55 27.7 19.3542 28.0417 19.2125 28.425C19.0708 28.8083 19 29.2 19 29.6C19 30.55 19.3292 31.3542 19.9875 32.0125C20.6458 32.6708 21.45 33 22.4 33Z" fill="black" fill-opacity="0.4"/>
</svg>
