<svg width="22" height="27" viewBox="0 0 22 27" fill="#000000" xmlns="http://www.w3.org/2000/svg">
<path d="M18.8333 2.26649e-08C19.5935 -9.33625e-05 20.3254 0.288394 20.881 0.807159C21.4366 1.32592 21.7746 2.03628 21.8267 2.79467L21.8333 2.99867V23.6627C21.8334 24.4228 21.5449 25.1547 21.0262 25.7103C20.5074 26.266 19.7971 26.604 19.0387 26.656L18.8333 26.6627H3.5C2.73983 26.6628 2.00797 26.3743 1.45233 25.8555C0.896686 25.3367 0.558696 24.6264 0.506667 23.868L0.5 23.6653V3C0.499907 2.23983 0.788394 1.50797 1.30716 0.952329C1.82592 0.396686 2.53628 0.0586962 3.29467 0.00666684L3.5 2.26649e-08H18.8333ZM18.8333 2H3.5C3.25835 2.00001 3.02488 2.08752 2.84276 2.24636C2.66064 2.40519 2.5422 2.6246 2.50933 2.864L2.5 3V23.664C2.5 24.1707 2.876 24.5893 3.364 24.6547L3.5 24.664H18.8333C19.075 24.664 19.3085 24.5765 19.4906 24.4176C19.6727 24.2588 19.7911 24.0394 19.824 23.8L19.8333 23.664V3C19.8333 2.75835 19.7458 2.52488 19.587 2.34276C19.4281 2.16064 19.2087 2.0422 18.9693 2.00933L18.8333 1.99867V2ZM11.4973 14.6613C11.7525 14.6587 11.999 14.7538 12.1864 14.927C12.3737 15.1003 12.4878 15.3386 12.5052 15.5932C12.5226 15.8478 12.442 16.0994 12.2799 16.2965C12.1178 16.4935 11.8865 16.6212 11.6333 16.6533L11.4973 16.6613H5.5C5.24664 16.6613 5.00275 16.565 4.81761 16.392C4.63248 16.2191 4.5199 15.9823 4.50263 15.7295C4.48536 15.4767 4.56469 15.2268 4.72458 15.0303C4.88447 14.8337 5.113 14.7052 5.364 14.6707L5.5 14.6613H11.4973ZM16.8333 10.6653C17.0867 10.6654 17.3306 10.7617 17.5157 10.9346C17.7009 11.1076 17.8134 11.3444 17.8307 11.5972C17.848 11.8499 17.7686 12.0999 17.6088 12.2964C17.4489 12.4929 17.2203 12.6215 16.9693 12.656L16.8333 12.6653H5.5C5.24483 12.6679 4.99832 12.5729 4.81096 12.3996C4.62359 12.2264 4.50953 11.9881 4.49215 11.7335C4.47477 11.4789 4.55538 11.2273 4.71746 11.0302C4.87955 10.8331 5.11085 10.7054 5.364 10.6733L5.5 10.6653H16.8333ZM16.8333 6.66667C17.0867 6.66674 17.3306 6.76299 17.5157 6.93596C17.7009 7.10893 17.8134 7.34573 17.8307 7.59851C17.848 7.85128 17.7686 8.10119 17.6088 8.29773C17.4489 8.49427 17.2203 8.6228 16.9693 8.65733L16.8333 8.66667H5.5C5.24664 8.66659 5.00275 8.57034 4.81761 8.39737C4.63248 8.2244 4.5199 7.9876 4.50263 7.73483C4.48536 7.48205 4.56469 7.23214 4.72458 7.0356C4.88447 6.83906 5.113 6.71053 5.364 6.676L5.5 6.66533H16.8333V6.66667Z" fill="#000000" fill-opacity="0.4"/>
</svg>
