<svg width="26" height="32" viewBox="0 0 26 32" fill="none" xmlns="http://www.w3.org/2000/svg">
<path d="M22.2708 2.69146e-08C23.1735 -0.000110868 24.0426 0.342468 24.7024 0.958501C25.3623 1.57454 25.7636 2.41808 25.8254 3.31867L25.8333 3.56092V28.0994C25.8334 29.0021 25.4909 29.8712 24.8748 30.531C24.2588 31.1909 23.4152 31.5922 22.5147 31.654L22.2708 31.6619H4.0625C3.1598 31.662 2.29072 31.3195 1.63089 30.7034C0.971065 30.0874 0.569702 29.2438 0.507917 28.3433L0.5 28.1026V3.5625C0.499889 2.6598 0.842467 1.79072 1.4585 1.13089C2.07453 0.471064 2.91808 0.0697017 3.81867 0.00791688L4.0625 2.69146e-08H22.2708ZM22.2708 2.375H4.0625C3.77554 2.37501 3.49829 2.47893 3.28203 2.66755C3.06576 2.85616 2.92511 3.11671 2.88608 3.401L2.875 3.5625V28.101C2.875 28.7027 3.3215 29.1998 3.901 29.2774L4.0625 29.2885H22.2708C22.5578 29.2885 22.835 29.1846 23.0513 28.996C23.2676 28.8073 23.4082 28.5468 23.4473 28.2625L23.4583 28.101V3.5625C23.4583 3.27554 23.3544 2.99829 23.1658 2.78203C22.9772 2.56576 22.7166 2.42511 22.4323 2.38608L22.2708 2.37342V2.375ZM13.5593 17.4103C13.8623 17.4073 14.1551 17.5201 14.3776 17.7258C14.6001 17.9316 14.7355 18.2146 14.7562 18.5169C14.7768 18.8192 14.6811 19.118 14.4886 19.352C14.2961 19.5861 14.0215 19.7377 13.7208 19.7758L13.5593 19.7853H6.4375C6.13663 19.7852 5.84701 19.6709 5.62716 19.4655C5.40732 19.2601 5.27363 18.9789 5.25313 18.6788C5.23262 18.3786 5.32682 18.0818 5.51669 17.8484C5.70655 17.615 5.97794 17.4624 6.276 17.4214L6.4375 17.4103H13.5593ZM19.8958 12.6651C20.1967 12.6652 20.4863 12.7795 20.7062 12.9849C20.926 13.1903 21.0597 13.4715 21.0802 13.7716C21.1007 14.0718 21.0065 14.3686 20.8167 14.602C20.6268 14.8354 20.3554 14.988 20.0573 15.029L19.8958 15.0401H6.4375C6.13449 15.0432 5.84176 14.9303 5.61926 14.7246C5.39676 14.5189 5.26132 14.2359 5.24068 13.9335C5.22004 13.6312 5.31576 13.3324 5.50823 13.0984C5.70071 12.8643 5.97538 12.7127 6.276 12.6746L6.4375 12.6651H19.8958ZM19.8958 7.91667C20.1967 7.91676 20.4863 8.03105 20.7062 8.23646C20.926 8.44186 21.0597 8.72306 21.0802 9.02323C21.1007 9.3234 21.0065 9.62016 20.8167 9.85356C20.6268 10.0869 20.3554 10.2396 20.0573 10.2806L19.8958 10.2917H6.4375C6.13663 10.2916 5.84701 10.1773 5.62716 9.97188C5.40732 9.76647 5.27363 9.48528 5.25313 9.18511C5.23262 8.88494 5.32682 8.58817 5.51669 8.35478C5.70655 8.12138 5.97794 7.96876 6.276 7.92775L6.4375 7.91508H19.8958V7.91667Z" fill="#031952" fill-opacity="0.86"/>
</svg>
