<svg width="33" height="8" viewBox="0 0 33 8" fill="none" xmlns="http://www.w3.org/2000/svg">
<path d="M4.08333 5.16667C4.95778 5.16667 5.66667 4.45778 5.66667 3.58333C5.66667 2.70888 4.95778 2 4.08333 2C3.20888 2 2.5 2.70888 2.5 3.58333C2.5 4.45778 3.20888 5.16667 4.08333 5.16667Z" stroke="#031952" stroke-width="4"/>
<path d="M16.75 5.16667C17.6245 5.16667 18.3333 4.45778 18.3333 3.58333C18.3333 2.70888 17.6245 2 16.75 2C15.8756 2 15.1667 2.70888 15.1667 3.58333C15.1667 4.45778 15.8756 5.16667 16.75 5.16667Z" stroke="#031952" stroke-width="4"/>
<path d="M29.4167 5.16667C30.2911 5.16667 31 4.45778 31 3.58333C31 2.70888 30.2911 2 29.4167 2C28.5422 2 27.8333 2.70888 27.8333 3.58333C27.8333 4.45778 28.5422 5.16667 29.4167 5.16667Z" stroke="#031952" stroke-width="4"/>
</svg>
