<svg width="25" height="39" viewBox="0 0 25 39" fill="none" xmlns="http://www.w3.org/2000/svg">
<path d="M20.9 0H4.1C3.14522 0 2.22955 0.379285 1.55442 1.05442C0.879285 1.72955 0.5 2.64522 0.5 3.6L0.5 34.8C0.5 35.7548 0.879285 36.6705 1.55442 37.3456C2.22955 38.0207 3.14522 38.4 4.1 38.4H20.9C21.8548 38.4 22.7705 38.0207 23.4456 37.3456C24.1207 36.6705 24.5 35.7548 24.5 34.8V3.6C24.5 2.64522 24.1207 1.72955 23.4456 1.05442C22.7705 0.379285 21.8548 0 20.9 0V0ZM12.5 36C12.1852 35.9998 11.8736 35.9376 11.5829 35.8169C11.2922 35.6963 11.0281 35.5196 10.8057 35.2969C10.3565 34.8471 10.1044 34.2373 10.1048 33.6016C10.105 33.2868 10.1672 32.9752 10.2879 32.6845C10.4085 32.3938 10.5852 32.1297 10.8079 31.9073C11.2577 31.4581 11.8675 31.206 12.5032 31.2064C13.1389 31.2068 13.7483 31.4597 14.1975 31.9095C14.6467 32.3593 14.8988 32.9691 14.8984 33.6048C14.898 34.2405 14.6451 34.8499 14.1953 35.2991C13.7455 35.7483 13.1357 36.0004 12.5 36H12.4984H12.5ZM20.9 27.904C20.8983 28.1411 20.8034 28.368 20.6357 28.5357C20.468 28.7034 20.2411 28.7983 20.004 28.8H4.9992C4.76157 28.8 4.53366 28.7056 4.36563 28.5376C4.1976 28.3695 4.1032 28.1416 4.1032 27.904V4.5008C4.1032 4.26317 4.1976 4.03526 4.36563 3.86723C4.53366 3.6992 4.76157 3.6048 4.9992 3.6048H19.9976C20.2347 3.60648 20.4616 3.70141 20.6293 3.86908C20.797 4.03676 20.8919 4.26368 20.8936 4.5008L20.9 27.904Z" fill="#031952" fill-opacity="0.86"/>
</svg>
