<svg width="27" height="17" viewBox="0 0 27 17" fill="none" xmlns="http://www.w3.org/2000/svg">
<path d="M9.60125 5.89875C9.51416 5.81144 9.41071 5.74218 9.29681 5.69491C9.18292 5.64765 9.06081 5.62332 8.9375 5.62332C8.81419 5.62332 8.69208 5.64765 8.57819 5.69491C8.46429 5.74218 8.36084 5.81144 8.27375 5.89875L7.0625 7.11188L5.85125 5.89875C5.76409 5.81158 5.66061 5.74244 5.54672 5.69527C5.43283 5.6481 5.31077 5.62382 5.1875 5.62382C5.06423 5.62382 4.94217 5.6481 4.82828 5.69527C4.71439 5.74244 4.61091 5.81158 4.52375 5.89875C4.43658 5.98591 4.36744 6.08939 4.32027 6.20328C4.2731 6.31717 4.24882 6.43923 4.24882 6.5625C4.24882 6.68577 4.2731 6.80783 4.32027 6.92172C4.36744 7.03561 4.43658 7.13909 4.52375 7.22625L5.73688 8.4375L4.52375 9.64875C4.43658 9.73592 4.36744 9.83939 4.32027 9.95328C4.2731 10.0672 4.24882 10.1892 4.24882 10.3125C4.24882 10.4358 4.2731 10.5578 4.32027 10.6717C4.36744 10.7856 4.43658 10.8891 4.52375 10.9762C4.69979 11.1523 4.93855 11.2512 5.1875 11.2512C5.31077 11.2512 5.43283 11.2269 5.54672 11.1797C5.66061 11.1326 5.76409 11.0634 5.85125 10.9762L7.0625 9.76312L8.27375 10.9762C8.36091 11.0634 8.46439 11.1326 8.57828 11.1797C8.69217 11.2269 8.81423 11.2512 8.9375 11.2512C9.06077 11.2512 9.18283 11.2269 9.29672 11.1797C9.41061 11.1326 9.51408 11.0634 9.60125 10.9762C9.68842 10.8891 9.75756 10.7856 9.80473 10.6717C9.8519 10.5578 9.87618 10.4358 9.87618 10.3125C9.87618 10.1892 9.8519 10.0672 9.80473 9.95328C9.75756 9.83939 9.68842 9.73592 9.60125 9.64875L8.38812 8.4375L9.60125 7.22625C9.68856 7.13916 9.75782 7.03571 9.80509 6.92181C9.85235 6.80792 9.87668 6.68581 9.87668 6.5625C9.87668 6.43919 9.85235 6.31708 9.80509 6.20319C9.75782 6.08929 9.68856 5.98584 9.60125 5.89875ZM15.7738 5.89875C15.8609 5.81158 15.9644 5.74244 16.0783 5.69527C16.1922 5.6481 16.3142 5.62382 16.4375 5.62382C16.5608 5.62382 16.6828 5.6481 16.7967 5.69527C16.9106 5.74244 17.0141 5.81158 17.1012 5.89875C17.1884 5.98591 17.2576 6.08939 17.3047 6.20328C17.3519 6.31717 17.3762 6.43923 17.3762 6.5625C17.3762 6.68577 17.3519 6.80783 17.3047 6.92172C17.2576 7.03561 17.1884 7.13909 17.1012 7.22625L15.8881 8.4375L17.1012 9.64875C17.2773 9.82479 17.3762 10.0635 17.3762 10.3125C17.3762 10.5615 17.2773 10.8002 17.1012 10.9762C16.9252 11.1523 16.6865 11.2512 16.4375 11.2512C16.1885 11.2512 15.9498 11.1523 15.7738 10.9762L14.5625 9.76312L13.3512 10.9762C13.2641 11.0634 13.1606 11.1326 13.0467 11.1797C12.9328 11.2269 12.8108 11.2512 12.6875 11.2512C12.5642 11.2512 12.4422 11.2269 12.3283 11.1797C12.2144 11.1326 12.1109 11.0634 12.0238 10.9762C11.9366 10.8891 11.8674 10.7856 11.8203 10.6717C11.7731 10.5578 11.7488 10.4358 11.7488 10.3125C11.7488 10.1892 11.7731 10.0672 11.8203 9.95328C11.8674 9.83939 11.9366 9.73592 12.0238 9.64875L13.2369 8.4375L12.0238 7.22625C11.9366 7.13909 11.8674 7.03561 11.8203 6.92172C11.7731 6.80783 11.7488 6.68577 11.7488 6.5625C11.7488 6.43923 11.7731 6.31717 11.8203 6.20328C11.8674 6.08939 11.9366 5.98591 12.0238 5.89875C12.1109 5.81158 12.2144 5.74244 12.3283 5.69527C12.4422 5.6481 12.5642 5.62382 12.6875 5.62382C12.8108 5.62382 12.9328 5.6481 13.0467 5.69527C13.1606 5.74244 13.2641 5.81158 13.3512 5.89875L14.5625 7.11188L15.7738 5.89875ZM20.1875 9.375C19.9389 9.375 19.7004 9.47377 19.5246 9.64959C19.3488 9.8254 19.25 10.0639 19.25 10.3125C19.25 10.5611 19.3488 10.7996 19.5246 10.9754C19.7004 11.1512 19.9389 11.25 20.1875 11.25H22.0625C22.3111 11.25 22.5496 11.1512 22.7254 10.9754C22.9012 10.7996 23 10.5611 23 10.3125C23 10.0639 22.9012 9.8254 22.7254 9.64959C22.5496 9.47377 22.3111 9.375 22.0625 9.375H20.1875ZM5.1875 0C3.9443 0 2.75201 0.49386 1.87294 1.37294C0.99386 2.25201 0.5 3.4443 0.5 4.6875V12.1875C0.5 12.8031 0.621246 13.4126 0.856815 13.9813C1.09238 14.55 1.43766 15.0668 1.87294 15.5021C2.75201 16.3811 3.9443 16.875 5.1875 16.875H22.0625C22.6781 16.875 23.2876 16.7538 23.8563 16.5182C24.425 16.2826 24.9418 15.9373 25.3771 15.5021C25.8123 15.0668 26.1576 14.55 26.3932 13.9813C26.6288 13.4126 26.75 12.8031 26.75 12.1875V4.6875C26.75 3.4443 26.2561 2.25201 25.3771 1.37294C24.498 0.49386 23.3057 0 22.0625 0H5.1875ZM2.375 4.6875C2.375 3.94158 2.67132 3.22621 3.19876 2.69876C3.72621 2.17132 4.44158 1.875 5.1875 1.875H22.0625C22.8084 1.875 23.5238 2.17132 24.0512 2.69876C24.5787 3.22621 24.875 3.94158 24.875 4.6875V12.1875C24.875 12.9334 24.5787 13.6488 24.0512 14.1762C23.5238 14.7037 22.8084 15 22.0625 15H5.1875C4.44158 15 3.72621 14.7037 3.19876 14.1762C2.67132 13.6488 2.375 12.9334 2.375 12.1875V4.6875Z" fill="black" fill-opacity="0.4"/>
</svg>
