<svg width="26" height="31" viewBox="0 0 26 31" fill="none" xmlns="http://www.w3.org/2000/svg">
<path d="M12.9999 14.5C14.3075 14.5 15.5857 14.0895 16.6728 13.3203C17.76 12.5511 18.6074 11.4579 19.1078 10.1788C19.6082 8.8997 19.7391 7.49224 19.484 6.13437C19.2289 4.7765 18.5992 3.52922 17.6747 2.55026C16.7501 1.57129 15.5721 0.904603 14.2897 0.634506C13.0072 0.36441 11.678 0.503033 10.4699 1.03285C9.26192 1.56266 8.2294 2.45987 7.50297 3.61101C6.77653 4.76216 6.38879 6.11553 6.38879 7.5C6.38879 9.35652 7.08532 11.137 8.32514 12.4497C9.56497 13.7625 11.2465 14.5 12.9999 14.5ZM12.9999 2.5C13.9339 2.5 14.8469 2.79325 15.6234 3.34265C16.4 3.89206 17.0053 4.67296 17.3627 5.58659C17.7201 6.50022 17.8136 7.50555 17.6314 8.47545C17.4492 9.44536 16.9994 10.3363 16.339 11.0355C15.6786 11.7348 14.8372 12.211 13.9212 12.4039C13.0051 12.5969 12.0557 12.4978 11.1928 12.1194C10.3299 11.741 9.59241 11.1001 9.07352 10.2779C8.55464 9.45561 8.27768 8.48891 8.27768 7.5C8.27768 6.17392 8.7752 4.90215 9.66079 3.96447C10.5464 3.02679 11.7475 2.5 12.9999 2.5Z" fill="#8D8D8D"/>
<path d="M24.7772 21.87C23.2626 20.175 21.4374 18.8249 19.4132 17.9022C17.3891 16.9795 15.2084 16.5036 13.0047 16.5036C10.8009 16.5036 8.62027 16.9795 6.5961 17.9022C4.57194 18.8249 2.74677 20.175 1.23217 21.87C0.903799 22.2414 0.721425 22.7313 0.72217 23.24V28.5C0.72217 29.0304 0.921178 29.5392 1.27541 29.9142C1.62965 30.2893 2.11009 30.5 2.61106 30.5H23.3888C23.8898 30.5 24.3702 30.2893 24.7245 29.9142C25.0787 29.5392 25.2777 29.0304 25.2777 28.5V23.24C25.281 22.7327 25.1021 22.2429 24.7772 21.87ZM23.3888 28.5H2.61106V23.23C3.94955 21.7377 5.56083 20.5494 7.34684 19.7373C9.13285 18.9253 11.0562 18.5065 12.9999 18.5065C14.9437 18.5065 16.867 18.9253 18.6531 19.7373C20.4391 20.5494 22.0503 21.7377 23.3888 23.23V28.5Z" fill="#8D8D8D"/>
</svg>
