<svg width="25" height="24" viewBox="0 0 25 24" fill="none" xmlns="http://www.w3.org/2000/svg">
<path d="M8.08333 10.8333C7.79602 10.8333 7.52047 10.9475 7.3173 11.1506C7.11414 11.3538 7 11.6294 7 11.9167C7 12.204 7.11414 12.4795 7.3173 12.6827C7.52047 12.8859 7.79602 13 8.08333 13H16.75C17.0373 13 17.3129 12.8859 17.516 12.6827C17.7192 12.4795 17.8333 12.204 17.8333 11.9167C17.8333 11.6294 17.7192 11.3538 17.516 11.1506C17.3129 10.9475 17.0373 10.8333 16.75 10.8333H8.08333Z" fill="black" fill-opacity="0.4"/>
<path fill-rule="evenodd" clip-rule="evenodd" d="M24.3333 11.9167C24.3333 18.4979 18.9979 23.8333 12.4167 23.8333C5.83542 23.8333 0.5 18.4979 0.5 11.9167C0.5 5.33542 5.83542 0 12.4167 0C18.9979 0 24.3333 5.33542 24.3333 11.9167ZM22.1667 11.9167C22.1667 13.1971 21.9145 14.4649 21.4245 15.6478C20.9345 16.8308 20.2163 17.9056 19.311 18.811C18.4056 19.7163 17.3308 20.4345 16.1478 20.9245C14.9649 21.4145 13.6971 21.6667 12.4167 21.6667C11.1363 21.6667 9.86843 21.4145 8.6855 20.9245C7.50258 20.4345 6.42775 19.7163 5.52238 18.811C4.617 17.9056 3.89882 16.8308 3.40884 15.6478C2.91886 14.4649 2.66667 13.1971 2.66667 11.9167C2.66667 9.3308 3.6939 6.85085 5.52238 5.02238C7.35085 3.1939 9.8308 2.16667 12.4167 2.16667C15.0025 2.16667 17.4825 3.1939 19.311 5.02238C21.1394 6.85085 22.1667 9.3308 22.1667 11.9167Z" fill="black" fill-opacity="0.4"/>
</svg>
