<svg width="24" height="25" viewBox="0 0 24 25" fill="none" xmlns="http://www.w3.org/2000/svg">
<path d="M12.9 10.75C12.3 10.6 11.7 10.3 11.25 9.85C10.8 9.7 10.65 9.25 10.65 8.95C10.65 8.65 10.8 8.2 11.1 8.05C11.55 7.75 12 7.45 12.45 7.6C13.35 7.6 14.1 8.05 14.55 8.65L15.9 6.85C15.45 6.4 15 6.1 14.55 5.8C14.1 5.5 13.5 5.35 12.9 5.35V3.25H11.1V5.35C10.35 5.5 9.6 5.95 9 6.55C8.4 7.3 7.95 8.2 8.1 9.1C8.1 10 8.4 10.9 9 11.5C9.75 12.25 10.8 12.7 11.7 13.15C12.15 13.3 12.75 13.6 13.2 13.9C13.5 14.2 13.65 14.65 13.65 15.1C13.65 15.55 13.5 16 13.2 16.45C12.75 16.9 12.15 17.05 11.7 17.05C11.1 17.05 10.35 16.9 9.9 16.45C9.45 16.15 9 15.7 8.7 15.25L7.2 16.9C7.65 17.5 8.1 17.95 8.7 18.4C9.45 18.85 10.35 19.3 11.25 19.3V21.25H12.9V19C13.8 18.85 14.55 18.4 15.15 17.8C15.9 17.05 16.35 15.85 16.35 14.8C16.35 13.9 16.05 12.85 15.3 12.25C14.55 11.5 13.8 11.05 12.9 10.75ZM12 0.25C5.4 0.25 0 5.65 0 12.25C0 18.85 5.4 24.25 12 24.25C18.6 24.25 24 18.85 24 12.25C24 5.65 18.6 0.25 12 0.25ZM12 22.6C6.3 22.6 1.65 17.95 1.65 12.25C1.65 6.55 6.3 1.9 12 1.9C17.7 1.9 22.35 6.55 22.35 12.25C22.35 17.95 17.7 22.6 12 22.6Z" fill="black" fill-opacity="0.4"/>
</svg>
