<svg width="53" height="53" viewBox="0 0 53 53" fill="none" xmlns="http://www.w3.org/2000/svg">
<circle cx="26.5" cy="26.3333" r="25.5" stroke="black" stroke-opacity="0.4"/>
<path d="M27.344 25.7975C27.3175 25.7906 27.2871 25.7866 27.2558 25.7866C27.2346 25.7866 27.2138 25.7884 27.1936 25.7919L27.1958 25.7916C26.696 25.6906 26.325 25.255 26.325 24.7327C26.325 24.7143 26.3255 24.6961 26.3264 24.6779L26.3263 24.6804C26.3287 24.6632 26.3301 24.6433 26.3301 24.623C26.3301 24.3819 26.1346 24.1864 25.8935 24.1864C25.6523 24.1864 25.4568 24.3819 25.4568 24.623C25.4568 24.6433 25.4582 24.6632 25.4609 24.6827L25.4606 24.6804C25.4597 24.7032 25.4592 24.7298 25.4592 24.7567C25.4592 25.6485 26.0192 26.4095 26.8067 26.7073L26.821 26.712V27.2051C26.8186 27.2223 26.8172 27.2422 26.8172 27.2625C26.8172 27.5036 27.0127 27.6991 27.2539 27.6991C27.495 27.6991 27.6905 27.5036 27.6905 27.2625C27.6905 27.2422 27.6891 27.2223 27.6865 27.2028L27.6867 27.2051V26.7419C28.5502 26.4724 29.1662 25.6799 29.1662 24.7437C29.1662 24.6451 29.1593 24.548 29.1461 24.4531L29.1474 24.464C29.1125 23.4527 28.3155 22.6383 27.3146 22.5759L27.3091 22.5756C26.7572 22.5363 26.3244 22.0789 26.3244 21.5204C26.3244 21.4979 26.3251 21.4756 26.3265 21.4534L26.3263 21.4564C26.3251 21.4373 26.3244 21.415 26.3244 21.3924C26.3244 20.834 26.7572 20.3766 27.3056 20.3375L27.309 20.3373C27.8609 20.3766 28.2937 20.834 28.2937 21.3924C28.2937 21.4149 28.293 21.4373 28.2916 21.4595L28.2918 21.4564C28.2894 21.4737 28.288 21.4936 28.288 21.5138C28.288 21.755 28.4835 21.9505 28.7246 21.9505C28.9657 21.9505 29.1612 21.755 29.1612 21.5138C29.1612 21.4936 29.1599 21.4737 29.1572 21.4542L29.1575 21.4565C29.1586 21.4314 29.1592 21.4019 29.1592 21.3724C29.1592 20.4439 28.5458 19.6586 27.7022 19.3997L27.6876 19.3958V18.9474C27.69 18.9302 27.6913 18.9103 27.6913 18.89C27.6913 18.6488 27.4958 18.4534 27.2547 18.4534C27.0136 18.4534 26.8181 18.6489 26.8181 18.89C26.8181 18.9103 26.8195 18.9302 26.8221 18.9497L26.8219 18.9474V19.4278C26.0141 19.7389 25.4515 20.5087 25.4515 21.41C25.4515 21.5258 25.4607 21.6395 25.4786 21.7502L25.477 21.7381C25.5391 22.7224 26.324 23.5048 27.3037 23.5627L27.309 23.5629C27.8598 23.6003 28.2924 24.0563 28.2924 24.6133C28.2924 24.6301 28.292 24.6468 28.2913 24.6634L28.2914 24.661C28.2931 24.684 28.2941 24.7107 28.2941 24.7377C28.2941 25.2856 27.8807 25.737 27.3489 25.797L27.344 25.7975Z" fill="black" fill-opacity="0.4"/>
<path d="M26.9075 27.217L26.8987 27.262C26.8717 27.2565 26.8454 27.2478 26.8186 27.2415C26.8183 27.2484 26.8177 27.2559 26.8177 27.2629L26.8196 27.2893L27.0237 27.2639L26.9661 27.2493C26.99 27.2555 27.0142 27.2574 27.0374 27.262L27.1409 27.2493M26.9075 27.217L27.1409 27.2493M26.9075 27.217L27.1409 27.2493M26.9075 27.217L26.9104 27.2053H27.3968L27.3987 27.218L27.1409 27.2493M27.4388 27.2053L27.4397 27.2131L27.4124 27.2161L27.4134 27.2053H27.4388ZM26.1897 24.6614L25.8978 24.6487L26.0052 24.635L26.1897 24.6614ZM25.7708 24.6428H25.7532L25.7659 24.6409C25.7674 24.6417 25.7693 24.642 25.7708 24.6428ZM25.5159 24.5667L25.4622 24.5686C25.4626 24.5657 25.4628 24.5627 25.4632 24.5598L25.5159 24.5667ZM29.1546 21.5764L29.1204 21.5715L29.1556 21.5706C29.1553 21.5725 29.1549 21.5745 29.1546 21.5764ZM28.7015 21.4895L28.6136 21.5002L28.4212 21.4739L28.7015 21.4895ZM29.0257 21.4504L28.9788 21.4563L28.8284 21.4417L29.0257 21.4504ZM27.6897 18.8762C27.6738 18.8734 27.6579 18.87 27.6419 18.8674L27.6888 18.8616C27.6891 18.8665 27.6896 18.8713 27.6897 18.8762Z" stroke="black" stroke-opacity="0.4" stroke-width="3"/>
<mask id="path-4-inside-1_408_15" fill="white">
<path d="M27.3082 29.5452C23.5643 29.5452 20.5293 26.5102 20.5293 22.7663C20.5293 19.0224 23.5643 15.9874 27.3082 15.9874C31.0521 15.9874 34.0872 19.0224 34.0872 22.7663C34.0872 26.5102 31.0521 29.5452 27.3082 29.5452ZM33.1512 22.7663C33.1504 19.5399 30.5347 16.9246 27.3082 16.9246C24.0812 16.9246 21.4653 19.5406 21.4653 22.7676C21.4653 25.9945 24.0812 28.6105 27.3082 28.6105C30.5352 28.6105 33.1512 25.9945 33.1512 22.7676V22.7663Z"/>
</mask>
<path d="M27.3082 29.5452C23.5643 29.5452 20.5293 26.5102 20.5293 22.7663C20.5293 19.0224 23.5643 15.9874 27.3082 15.9874C31.0521 15.9874 34.0872 19.0224 34.0872 22.7663C34.0872 26.5102 31.0521 29.5452 27.3082 29.5452ZM33.1512 22.7663C33.1504 19.5399 30.5347 16.9246 27.3082 16.9246C24.0812 16.9246 21.4653 19.5406 21.4653 22.7676C21.4653 25.9945 24.0812 28.6105 27.3082 28.6105C30.5352 28.6105 33.1512 25.9945 33.1512 22.7676V22.7663Z" fill="black" fill-opacity="0.4"/>
<path d="M33.1512 22.7663H36.1512V22.7656L33.1512 22.7663ZM27.3082 29.5452V26.5452C25.2212 26.5452 23.5293 24.8534 23.5293 22.7663H20.5293H17.5293C17.5293 28.1671 21.9075 32.5452 27.3082 32.5452V29.5452ZM20.5293 22.7663H23.5293C23.5293 20.6793 25.2212 18.9874 27.3082 18.9874V15.9874V12.9874C21.9075 12.9874 17.5293 17.3656 17.5293 22.7663H20.5293ZM27.3082 15.9874V18.9874C29.3953 18.9874 31.0872 20.6793 31.0872 22.7663H34.0872H37.0872C37.0872 17.3656 32.709 12.9874 27.3082 12.9874V15.9874ZM34.0872 22.7663H31.0872C31.0872 24.8534 29.3953 26.5452 27.3082 26.5452V29.5452V32.5452C32.709 32.5452 37.0872 28.1671 37.0872 22.7663H34.0872ZM33.1512 22.7663L36.1512 22.7656C36.1501 17.8827 32.1914 13.9246 27.3082 13.9246V16.9246V19.9246C28.8781 19.9246 30.1508 21.1971 30.1512 22.767L33.1512 22.7663ZM27.3082 16.9246V13.9246C22.4244 13.9246 18.4653 17.8837 18.4653 22.7676H21.4653H24.4653C24.4653 21.1974 25.7381 19.9246 27.3082 19.9246V16.9246ZM21.4653 22.7676H18.4653C18.4653 27.6514 22.4244 31.6105 27.3082 31.6105V28.6105V25.6105C25.7381 25.6105 24.4653 24.3377 24.4653 22.7676H21.4653ZM27.3082 28.6105V31.6105C32.192 31.6105 36.1512 27.6514 36.1512 22.7676H33.1512H30.1512C30.1512 24.3377 28.8783 25.6105 27.3082 25.6105V28.6105ZM33.1512 22.7676H36.1512V22.7663H33.1512H30.1512V22.7676H33.1512Z" fill="black" fill-opacity="0.4" mask="url(#path-4-inside-1_408_15)"/>
<mask id="path-6-inside-2_408_15" fill="white">
<path d="M36.4316 30.2606L36.4188 30.2668C36.7428 30.0961 37.1118 29.9996 37.5034 29.9996C38.3972 29.9996 39.1735 30.5027 39.5705 31.2539L39.5692 31.2513C39.6091 31.3231 39.6317 31.4058 39.6317 31.4937C39.6317 31.6634 39.5472 31.8133 39.4164 31.9048L31.0265 37.5448L31.028 37.5439C31.0098 37.5563 30.9906 37.5674 30.968 37.5781L31.004 37.5623C30.2013 37.9533 29.2995 38.1727 28.3466 38.1727H28.3465H28.3467C28.3457 38.1727 28.3446 38.1727 28.3436 38.1727C27.8941 38.1727 27.4562 38.123 27.0749 38.0362C27.0648 38.0337 27.0547 38.0312 27.0446 38.0282L21.2585 36.3407L21.2699 36.3436C21.1229 36.2993 20.967 36.2755 20.8056 36.2755C20.5162 36.2755 20.2447 36.352 20.0181 36.4817L19.0497 37.0207L19.0388 37.4274V37.4276C19.0367 37.6873 18.828 37.8978 18.5685 37.9028L14.8257 37.7962L14.8246 37.7962C14.5702 37.7833 14.368 37.5731 14.368 37.3155C14.368 37.3079 14.3682 37.3003 14.3685 37.2939L14.5942 28.7882V28.7881C14.5953 28.5249 14.809 28.312 15.0725 28.312C15.0741 28.312 15.0757 28.312 15.0771 28.312L18.8072 28.4211L18.8083 28.4211C19.0626 28.4337 19.2649 28.6439 19.2649 28.9013C19.2649 28.9091 19.2647 28.9168 19.2644 28.9234L19.243 29.7381L19.2128 29.7535C20.0608 29.2821 21.0371 29.0135 22.0761 29.0135C23.1105 29.0135 24.0827 29.2797 24.8977 29.7318L25.2438 29.9183L25.2256 29.9093C25.6909 30.1638 26.2206 30.3152 26.7895 30.3331L30.1887 30.4291L30.1942 30.4293C31.305 30.472 32.2604 31.1208 32.747 32.0712L36.4316 30.2606ZM18.1112 36.9116L18.3103 29.3832L15.5212 29.3036L15.3221 36.832L18.1112 36.9116ZM27.2842 37.0825C27.605 37.1536 27.9734 37.1943 28.3514 37.1943C29.1482 37.1943 29.9028 37.0133 30.5762 36.6902L30.5452 36.7036L38.4766 31.3722C38.2253 31.1265 37.8811 30.9749 37.5015 30.9749C37.2637 30.9749 37.0398 31.0344 36.8439 31.1392L36.8514 31.1356L36.8404 31.1411L33.0632 32.9971C33.0929 33.1613 33.1099 33.3502 33.1099 33.5431C33.1099 33.5741 33.1094 33.6049 33.1086 33.6357L33.1087 33.6312C33.1066 33.8909 32.8981 34.1014 32.6392 34.1065H32.6388H32.6257L27.0346 33.9465C26.7795 33.9281 26.5795 33.7167 26.5795 33.4585C26.5795 33.1911 26.794 32.9738 27.0602 32.9693H27.0607L32.1272 33.1145C31.9485 32.1659 31.1473 31.451 30.1713 31.4065L30.1668 31.4063L26.7651 31.3091C26.0458 31.2865 25.376 31.0951 24.7876 30.7734L24.8106 30.7849L24.4645 30.5984C23.774 30.2158 22.9504 29.9906 22.0742 29.9906C21.003 29.9906 20.0104 30.3272 19.1964 30.9003L19.2123 30.8897L19.0797 35.8952L19.5748 35.6194C19.9289 35.4171 20.353 35.2978 20.8049 35.2978C21.0568 35.2978 21.3 35.3348 21.5295 35.4038L21.5117 35.3992L27.2842 37.0825Z"/>
</mask>
<path d="M36.4316 30.2606L36.4188 30.2668C36.7428 30.0961 37.1118 29.9996 37.5034 29.9996C38.3972 29.9996 39.1735 30.5027 39.5705 31.2539L39.5692 31.2513C39.6091 31.3231 39.6317 31.4058 39.6317 31.4937C39.6317 31.6634 39.5472 31.8133 39.4164 31.9048L31.0265 37.5448L31.028 37.5439C31.0098 37.5563 30.9906 37.5674 30.968 37.5781L31.004 37.5623C30.2013 37.9533 29.2995 38.1727 28.3466 38.1727H28.3465H28.3467C28.3457 38.1727 28.3446 38.1727 28.3436 38.1727C27.8941 38.1727 27.4562 38.123 27.0749 38.0362C27.0648 38.0337 27.0547 38.0312 27.0446 38.0282L21.2585 36.3407L21.2699 36.3436C21.1229 36.2993 20.967 36.2755 20.8056 36.2755C20.5162 36.2755 20.2447 36.352 20.0181 36.4817L19.0497 37.0207L19.0388 37.4274V37.4276C19.0367 37.6873 18.828 37.8978 18.5685 37.9028L14.8257 37.7962L14.8246 37.7962C14.5702 37.7833 14.368 37.5731 14.368 37.3155C14.368 37.3079 14.3682 37.3003 14.3685 37.2939L14.5942 28.7882V28.7881C14.5953 28.5249 14.809 28.312 15.0725 28.312C15.0741 28.312 15.0757 28.312 15.0771 28.312L18.8072 28.4211L18.8083 28.4211C19.0626 28.4337 19.2649 28.6439 19.2649 28.9013C19.2649 28.9091 19.2647 28.9168 19.2644 28.9234L19.243 29.7381L19.2128 29.7535C20.0608 29.2821 21.0371 29.0135 22.0761 29.0135C23.1105 29.0135 24.0827 29.2797 24.8977 29.7318L25.2438 29.9183L25.2256 29.9093C25.6909 30.1638 26.2206 30.3152 26.7895 30.3331L30.1887 30.4291L30.1942 30.4293C31.305 30.472 32.2604 31.1208 32.747 32.0712L36.4316 30.2606ZM18.1112 36.9116L18.3103 29.3832L15.5212 29.3036L15.3221 36.832L18.1112 36.9116ZM27.2842 37.0825C27.605 37.1536 27.9734 37.1943 28.3514 37.1943C29.1482 37.1943 29.9028 37.0133 30.5762 36.6902L30.5452 36.7036L38.4766 31.3722C38.2253 31.1265 37.8811 30.9749 37.5015 30.9749C37.2637 30.9749 37.0398 31.0344 36.8439 31.1392L36.8514 31.1356L36.8404 31.1411L33.0632 32.9971C33.0929 33.1613 33.1099 33.3502 33.1099 33.5431C33.1099 33.5741 33.1094 33.6049 33.1086 33.6357L33.1087 33.6312C33.1066 33.8909 32.8981 34.1014 32.6392 34.1065H32.6388H32.6257L27.0346 33.9465C26.7795 33.9281 26.5795 33.7167 26.5795 33.4585C26.5795 33.1911 26.794 32.9738 27.0602 32.9693H27.0607L32.1272 33.1145C31.9485 32.1659 31.1473 31.451 30.1713 31.4065L30.1668 31.4063L26.7651 31.3091C26.0458 31.2865 25.376 31.0951 24.7876 30.7734L24.8106 30.7849L24.4645 30.5984C23.774 30.2158 22.9504 29.9906 22.0742 29.9906C21.003 29.9906 20.0104 30.3272 19.1964 30.9003L19.2123 30.8897L19.0797 35.8952L19.5748 35.6194C19.9289 35.4171 20.353 35.2978 20.8049 35.2978C21.0568 35.2978 21.3 35.3348 21.5295 35.4038L21.5117 35.3992L27.2842 37.0825Z" fill="black" fill-opacity="0.4"/>
<path d="M36.4316 30.2606L37.7546 32.9531L35.1325 27.5565L36.4316 30.2606ZM36.4188 30.2668L35.0208 27.6124L37.7179 32.9709L36.4188 30.2668ZM39.5705 31.2539L36.9183 32.6558L42.2406 29.8861L39.5705 31.2539ZM39.5692 31.2513L42.1922 29.7954L36.8992 32.6192L39.5692 31.2513ZM39.4164 31.9048L41.0901 34.3946L41.1132 34.3791L41.136 34.3631L39.4164 31.9048ZM31.0265 37.5448L29.3528 35.0551L32.6395 40.0743L31.0265 37.5448ZM31.028 37.5439L32.7214 40.0202L29.415 35.0144L31.028 37.5439ZM30.968 37.5781L29.6866 34.8655L32.1756 40.3243L30.968 37.5781ZM31.004 37.5623L32.3177 40.2594L29.7964 34.8161L31.004 37.5623ZM27.0749 38.0362L26.3452 40.9461L26.3773 40.9542L26.4097 40.9616L27.0749 38.0362ZM27.0446 38.0282L26.2046 40.9083L26.2063 40.9087L27.0446 38.0282ZM21.2585 36.3407L22.0086 33.4359L20.4185 39.2207L21.2585 36.3407ZM21.2699 36.3436L20.5198 39.2483L22.1358 33.4713L21.2699 36.3436ZM20.0181 36.4817L21.477 39.1031L21.493 39.0942L21.5089 39.0851L20.0181 36.4817ZM19.0497 37.0207L17.5909 34.3993L16.0968 35.2308L16.0508 36.94L19.0497 37.0207ZM19.0388 37.4274L16.0399 37.3468L16.0388 37.3871V37.4274H19.0388ZM19.0388 37.4276L22.0387 37.4514L22.0388 37.4395V37.4276H19.0388ZM18.5685 37.9028L18.4831 40.9015L18.5541 40.9036L18.6252 40.9022L18.5685 37.9028ZM14.8257 37.7962L14.9111 34.7974L14.9049 34.7973L14.8257 37.7962ZM14.8246 37.7962L14.6733 40.7924L14.7093 40.7942L14.7454 40.7951L14.8246 37.7962ZM14.3685 37.2939L17.3649 37.4394L17.3665 37.4064L17.3674 37.3735L14.3685 37.2939ZM14.5942 28.7882L17.5931 28.8678L17.5942 28.828V28.7882H14.5942ZM14.5942 28.7881L11.5942 28.7746V28.7881H14.5942ZM15.0771 28.312L15.1648 25.3133L15.155 25.313L15.1453 25.3128L15.0771 28.312ZM18.8072 28.4211L18.7195 31.4198L18.7259 31.42L18.8072 28.4211ZM18.8083 28.4211L18.9567 25.4248L18.9232 25.4231L18.8896 25.4222L18.8083 28.4211ZM19.2644 28.9234L16.2678 28.7814L16.2663 28.8128L16.2655 28.8443L19.2644 28.9234ZM19.243 29.7381L20.6068 32.4102L22.195 31.5996L22.2419 29.8171L19.243 29.7381ZM19.2128 29.7535L17.7551 27.1315L20.5766 32.4256L19.2128 29.7535ZM24.8977 29.7318L23.4423 32.3551L23.4583 32.364L23.4744 32.3727L24.8977 29.7318ZM25.2438 29.9183L23.9021 32.6016L26.6671 27.2775L25.2438 29.9183ZM25.2256 29.9093L26.5673 27.226L23.786 32.5413L25.2256 29.9093ZM26.7895 30.3331L26.6951 33.3316L26.7048 33.3319L26.7895 30.3331ZM30.1887 30.4291L30.104 33.4279L30.1048 33.4279L30.1887 30.4291ZM30.1942 30.4293L30.3095 27.4315L30.2938 27.4309L30.2781 27.4304L30.1942 30.4293ZM32.747 32.0712L30.0765 33.4382L31.4213 36.0652L34.07 34.7637L32.747 32.0712ZM18.1112 36.9116L18.0256 39.9104L21.0306 39.9961L21.1101 36.9909L18.1112 36.9116ZM18.3103 29.3832L21.3093 29.4625L21.3884 26.4698L18.3959 26.3844L18.3103 29.3832ZM15.5212 29.3036L15.6068 26.3048L12.6018 26.2191L12.5223 29.2243L15.5212 29.3036ZM15.3221 36.832L12.3231 36.7527L12.244 39.7454L15.2365 39.8308L15.3221 36.832ZM27.2842 37.0825L26.4444 39.9626L26.5389 39.9901L26.6351 40.0115L27.2842 37.0825ZM30.5762 36.6902L31.874 39.395L29.3856 33.9366L30.5762 36.6902ZM30.5452 36.7036L28.8716 34.2138L31.7358 39.4572L30.5452 36.7036ZM38.4766 31.3722L40.1502 33.862L43.2104 31.805L40.5739 29.2272L38.4766 31.3722ZM36.8439 31.1392L35.428 28.4944L38.1629 33.8337L36.8439 31.1392ZM36.8514 31.1356L38.1928 33.819L35.5323 28.4411L36.8514 31.1356ZM36.8404 31.1411L38.1634 33.8336L38.1727 33.829L38.1819 33.8244L36.8404 31.1411ZM33.0632 32.9971L31.7402 30.3045L29.7082 31.303L30.1111 33.5309L33.0632 32.9971ZM33.1086 33.6357L30.1092 33.5738L36.1073 33.721L33.1086 33.6357ZM33.1087 33.6312L36.1086 33.655L30.1093 33.5693L33.1087 33.6312ZM32.6392 34.1065V37.1065H32.6691L32.699 37.1059L32.6392 34.1065ZM32.6257 34.1065L32.5399 37.1053L32.5828 37.1065H32.6257V34.1065ZM27.0346 33.9465L26.8187 36.9388L26.8836 36.9434L26.9487 36.9453L27.0346 33.9465ZM27.0602 32.9693V29.9693H27.0347L27.0092 29.9697L27.0602 32.9693ZM27.0607 32.9693L27.1467 29.9705L27.1037 29.9693H27.0607V32.9693ZM32.1272 33.1145L32.0412 36.1133L35.7649 36.2201L35.0754 32.5592L32.1272 33.1145ZM30.1713 31.4065L30.3079 28.4096L30.2914 28.4089L30.2749 28.4083L30.1713 31.4065ZM30.1668 31.4063L30.2703 28.4081L30.2614 28.4078L30.2525 28.4076L30.1668 31.4063ZM26.7651 31.3091L26.6711 34.3076L26.6794 34.3079L26.7651 31.3091ZM24.7876 30.7734L26.1322 28.0916L23.3484 33.4056L24.7876 30.7734ZM24.8106 30.7849L23.466 33.4667L26.2339 28.144L24.8106 30.7849ZM24.4645 30.5984L23.0106 33.2225L23.0258 33.231L23.0412 33.2392L24.4645 30.5984ZM19.1964 30.9003L17.4693 28.4474L20.8639 33.3942L19.1964 30.9003ZM19.2123 30.8897L22.2112 30.9692L22.3648 25.173L17.5448 28.3958L19.2123 30.8897ZM19.0797 35.8952L16.0807 35.8157L15.9413 41.077L20.5394 38.5161L19.0797 35.8952ZM19.5748 35.6194L21.0345 38.2403L21.0489 38.2323L21.0632 38.2242L19.5748 35.6194ZM21.5295 35.4038L20.7789 38.3084L22.3927 32.5307L21.5295 35.4038ZM21.5117 35.3992L22.2623 32.4946L20.6718 38.2792L21.5117 35.3992ZM36.4316 30.2606L35.1325 27.5565L35.1198 27.5626L36.4188 30.2668L37.7179 32.9709L37.7307 32.9648L36.4316 30.2606ZM36.4188 30.2668L37.8169 32.9211C37.7201 32.972 37.6105 32.9996 37.5034 32.9996V29.9996V26.9996C36.6131 26.9996 35.7654 27.2202 35.0208 27.6124L36.4188 30.2668ZM37.5034 29.9996V32.9996C37.2328 32.9996 37.0158 32.8404 36.9183 32.6558L39.5705 31.2539L42.2228 29.852C41.3311 28.165 39.5616 26.9996 37.5034 26.9996V29.9996ZM39.5705 31.2539L42.2406 29.8861L42.2392 29.8835L39.5692 31.2513L36.8992 32.6192L36.9005 32.6217L39.5705 31.2539ZM39.5692 31.2513L36.9462 32.7073C36.745 32.3448 36.6317 31.9279 36.6317 31.4937H39.6317H42.6317C42.6317 30.8837 42.4731 30.3014 42.1922 29.7954L39.5692 31.2513ZM39.6317 31.4937H36.6317C36.6317 30.6372 37.0644 29.8889 37.6969 29.4465L39.4164 31.9048L41.136 34.3631C42.03 33.7378 42.6317 32.6896 42.6317 31.4937H39.6317ZM39.4164 31.9048L37.7427 29.4151L29.3528 35.0551L31.0265 37.5448L32.7002 40.0346L41.0901 34.3946L39.4164 31.9048ZM31.0265 37.5448L32.6395 40.0743L32.641 40.0734L31.028 37.5439L29.415 35.0144L29.4136 35.0153L31.0265 37.5448ZM31.028 37.5439L29.3346 35.0676C29.45 34.9886 29.5689 34.9212 29.6866 34.8655L30.968 37.5781L32.2494 40.2907C32.4124 40.2137 32.5696 40.1241 32.7214 40.0202L31.028 37.5439ZM30.968 37.5781L32.1756 40.3243L32.2116 40.3085L31.004 37.5623L29.7964 34.8161L29.7604 34.8319L30.968 37.5781ZM31.004 37.5623L29.6903 34.8652C29.2879 35.0612 28.8345 35.1727 28.3466 35.1727V38.1727V41.1727C29.7646 41.1727 31.1147 40.8453 32.3177 40.2594L31.004 37.5623ZM28.3466 38.1727V35.1727H28.3465V38.1727V41.1727H28.3466V38.1727ZM28.3465 38.1727V41.1727H28.3467V38.1727V35.1727H28.3465V38.1727ZM28.3467 38.1727V35.1727C28.3467 35.1727 28.3467 35.1727 28.3467 35.1727C28.3467 35.1727 28.3467 35.1727 28.3467 35.1727C28.3467 35.1727 28.3467 35.1727 28.3467 35.1727C28.3467 35.1727 28.3467 35.1727 28.3467 35.1727C28.3467 35.1727 28.3467 35.1727 28.3467 35.1727C28.3467 35.1727 28.3467 35.1727 28.3466 35.1727C28.3466 35.1727 28.3466 35.1727 28.3466 35.1727C28.3466 35.1727 28.3466 35.1727 28.3466 35.1727C28.3466 35.1727 28.3466 35.1727 28.3466 35.1727C28.3466 35.1727 28.3466 35.1727 28.3466 35.1727C28.3466 35.1727 28.3466 35.1727 28.3466 35.1727C28.3466 35.1727 28.3466 35.1727 28.3466 35.1727C28.3466 35.1727 28.3466 35.1727 28.3466 35.1727C28.3466 35.1727 28.3466 35.1727 28.3466 35.1727C28.3466 35.1727 28.3466 35.1727 28.3466 35.1727C28.3466 35.1727 28.3466 35.1727 28.3466 35.1727C28.3466 35.1727 28.3466 35.1727 28.3466 35.1727C28.3466 35.1727 28.3466 35.1727 28.3466 35.1727C28.3466 35.1727 28.3466 35.1727 28.3466 35.1727C28.3466 35.1727 28.3466 35.1727 28.3466 35.1727C28.3466 35.1727 28.3466 35.1727 28.3466 35.1727C28.3466 35.1727 28.3466 35.1727 28.3466 35.1727C28.3465 35.1727 28.3465 35.1727 28.3465 35.1727C28.3465 35.1727 28.3465 35.1727 28.3465 35.1727C28.3465 35.1727 28.3465 35.1727 28.3465 35.1727C28.3465 35.1727 28.3465 35.1727 28.3465 35.1727C28.3465 35.1727 28.3465 35.1727 28.3465 35.1727C28.3465 35.1727 28.3465 35.1727 28.3465 35.1727C28.3465 35.1727 28.3465 35.1727 28.3465 35.1727C28.3465 35.1727 28.3465 35.1727 28.3465 35.1727C28.3465 35.1727 28.3465 35.1727 28.3465 35.1727C28.3465 35.1727 28.3465 35.1727 28.3465 35.1727C28.3465 35.1727 28.3465 35.1727 28.3465 35.1727C28.3465 35.1727 28.3465 35.1727 28.3465 35.1727C28.3465 35.1727 28.3465 35.1727 28.3465 35.1727C28.3465 35.1727 28.3465 35.1727 28.3465 35.1727C28.3465 35.1727 28.3465 35.1727 28.3465 35.1727C28.3465 35.1727 28.3465 35.1727 28.3465 35.1727C28.3465 35.1727 28.3465 35.1727 28.3464 35.1727C28.3464 35.1727 28.3464 35.1727 28.3464 35.1727C28.3464 35.1727 28.3464 35.1727 28.3464 35.1727C28.3464 35.1727 28.3464 35.1727 28.3464 35.1727C28.3464 35.1727 28.3464 35.1727 28.3464 35.1727C28.3464 35.1727 28.3464 35.1727 28.3464 35.1727C28.3464 35.1727 28.3464 35.1727 28.3464 35.1727C28.3464 35.1727 28.3464 35.1727 28.3464 35.1727C28.3464 35.1727 28.3464 35.1727 28.3464 35.1727C28.3464 35.1727 28.3464 35.1727 28.3464 35.1727C28.3464 35.1727 28.3464 35.1727 28.3464 35.1727C28.3464 35.1727 28.3464 35.1727 28.3464 35.1727C28.3464 35.1727 28.3464 35.1727 28.3464 35.1727C28.3464 35.1727 28.3464 35.1727 28.3464 35.1727C28.3464 35.1727 28.3464 35.1727 28.3464 35.1727C28.3464 35.1727 28.3464 35.1727 28.3464 35.1727C28.3464 35.1727 28.3464 35.1727 28.3464 35.1727C28.3463 35.1727 28.3463 35.1727 28.3463 35.1727C28.3463 35.1727 28.3463 35.1727 28.3463 35.1727C28.3463 35.1727 28.3463 35.1727 28.3463 35.1727C28.3463 35.1727 28.3463 35.1727 28.3463 35.1727C28.3463 35.1727 28.3463 35.1727 28.3463 35.1727C28.3463 35.1727 28.3463 35.1727 28.3463 35.1727C28.3463 35.1727 28.3463 35.1727 28.3463 35.1727C28.3463 35.1727 28.3463 35.1727 28.3463 35.1727C28.3463 35.1727 28.3463 35.1727 28.3463 35.1727C28.3463 35.1727 28.3463 35.1727 28.3463 35.1727C28.3463 35.1727 28.3463 35.1727 28.3463 35.1727C28.3463 35.1727 28.3463 35.1727 28.3463 35.1727C28.3463 35.1727 28.3463 35.1727 28.3463 35.1727C28.3463 35.1727 28.3463 35.1727 28.3463 35.1727C28.3463 35.1727 28.3463 35.1727 28.3463 35.1727C28.3463 35.1727 28.3463 35.1727 28.3463 35.1727C28.3463 35.1727 28.3463 35.1727 28.3462 35.1727C28.3462 35.1727 28.3462 35.1727 28.3462 35.1727C28.3462 35.1727 28.3462 35.1727 28.3462 35.1727C28.3462 35.1727 28.3462 35.1727 28.3462 35.1727C28.3462 35.1727 28.3462 35.1727 28.3462 35.1727C28.3462 35.1727 28.3462 35.1727 28.3462 35.1727C28.3462 35.1727 28.3462 35.1727 28.3462 35.1727C28.3462 35.1727 28.3462 35.1727 28.3462 35.1727C28.3462 35.1727 28.3462 35.1727 28.3462 35.1727C28.3462 35.1727 28.3462 35.1727 28.3462 35.1727C28.3462 35.1727 28.3462 35.1727 28.3462 35.1727C28.3462 35.1727 28.3462 35.1727 28.3462 35.1727C28.3462 35.1727 28.3462 35.1727 28.3462 35.1727C28.3462 35.1727 28.3462 35.1727 28.3462 35.1727C28.3462 35.1727 28.3462 35.1727 28.3462 35.1727C28.3462 35.1727 28.3462 35.1727 28.3462 35.1727C28.3462 35.1727 28.3462 35.1727 28.3462 35.1727C28.3462 35.1727 28.3461 35.1727 28.3461 35.1727C28.3461 35.1727 28.3461 35.1727 28.3461 35.1727C28.3461 35.1727 28.3461 35.1727 28.3461 35.1727C28.3461 35.1727 28.3461 35.1727 28.3461 35.1727C28.3461 35.1727 28.3461 35.1727 28.3461 35.1727C28.3461 35.1727 28.3461 35.1727 28.3461 35.1727C28.3461 35.1727 28.3461 35.1727 28.3461 35.1727C28.3461 35.1727 28.3461 35.1727 28.3461 35.1727C28.3461 35.1727 28.3461 35.1727 28.3461 35.1727C28.3461 35.1727 28.3461 35.1727 28.3461 35.1727C28.3461 35.1727 28.3461 35.1727 28.3461 35.1727C28.3461 35.1727 28.3461 35.1727 28.3461 35.1727C28.3461 35.1727 28.3461 35.1727 28.3461 35.1727C28.3461 35.1727 28.3461 35.1727 28.3461 35.1727C28.3461 35.1727 28.3461 35.1727 28.3461 35.1727C28.3461 35.1727 28.3461 35.1727 28.3461 35.1727C28.3461 35.1727 28.3461 35.1727 28.3461 35.1727C28.346 35.1727 28.346 35.1727 28.346 35.1727C28.346 35.1727 28.346 35.1727 28.346 35.1727C28.346 35.1727 28.346 35.1727 28.346 35.1727C28.346 35.1727 28.346 35.1727 28.346 35.1727C28.346 35.1727 28.346 35.1727 28.346 35.1727C28.346 35.1727 28.346 35.1727 28.346 35.1727C28.346 35.1727 28.346 35.1727 28.346 35.1727C28.346 35.1727 28.346 35.1727 28.346 35.1727C28.346 35.1727 28.346 35.1727 28.346 35.1727C28.346 35.1727 28.346 35.1727 28.346 35.1727C28.346 35.1727 28.346 35.1727 28.346 35.1727C28.346 35.1727 28.346 35.1727 28.346 35.1727C28.346 35.1727 28.346 35.1727 28.346 35.1727C28.346 35.1727 28.346 35.1727 28.346 35.1727C28.346 35.1727 28.346 35.1727 28.346 35.1727C28.346 35.1727 28.346 35.1727 28.346 35.1727C28.346 35.1727 28.3459 35.1727 28.3459 35.1727C28.3459 35.1727 28.3459 35.1727 28.3459 35.1727C28.3459 35.1727 28.3459 35.1727 28.3459 35.1727C28.3459 35.1727 28.3459 35.1727 28.3459 35.1727C28.3459 35.1727 28.3459 35.1727 28.3459 35.1727C28.3459 35.1727 28.3459 35.1727 28.3459 35.1727C28.3459 35.1727 28.3459 35.1727 28.3459 35.1727C28.3459 35.1727 28.3459 35.1727 28.3459 35.1727C28.3459 35.1727 28.3459 35.1727 28.3459 35.1727C28.3459 35.1727 28.3459 35.1727 28.3459 35.1727C28.3459 35.1727 28.3459 35.1727 28.3459 35.1727C28.3459 35.1727 28.3459 35.1727 28.3459 35.1727C28.3459 35.1727 28.3459 35.1727 28.3459 35.1727C28.3459 35.1727 28.3459 35.1727 28.3459 35.1727C28.3459 35.1727 28.3459 35.1727 28.3459 35.1727C28.3459 35.1727 28.3459 35.1727 28.3459 35.1727C28.3459 35.1727 28.3459 35.1727 28.3459 35.1727C28.3458 35.1727 28.3458 35.1727 28.3458 35.1727C28.3458 35.1727 28.3458 35.1727 28.3458 35.1727C28.3458 35.1727 28.3458 35.1727 28.3458 35.1727C28.3458 35.1727 28.3458 35.1727 28.3458 35.1727C28.3458 35.1727 28.3458 35.1727 28.3458 35.1727C28.3458 35.1727 28.3458 35.1727 28.3458 35.1727C28.3458 35.1727 28.3458 35.1727 28.3458 35.1727C28.3458 35.1727 28.3458 35.1727 28.3458 35.1727C28.3458 35.1727 28.3458 35.1727 28.3458 35.1727C28.3458 35.1727 28.3458 35.1727 28.3458 35.1727C28.3458 35.1727 28.3458 35.1727 28.3458 35.1727C28.3458 35.1727 28.3458 35.1727 28.3458 35.1727C28.3458 35.1727 28.3458 35.1727 28.3458 35.1727C28.3458 35.1727 28.3458 35.1727 28.3458 35.1727C28.3458 35.1727 28.3458 35.1727 28.3458 35.1727C28.3458 35.1727 28.3458 35.1727 28.3458 35.1727C28.3458 35.1727 28.3457 35.1727 28.3457 35.1727C28.3457 35.1727 28.3457 35.1727 28.3457 35.1727C28.3457 35.1727 28.3457 35.1727 28.3457 35.1727C28.3457 35.1727 28.3457 35.1727 28.3457 35.1727C28.3457 35.1727 28.3457 35.1727 28.3457 35.1727C28.3457 35.1727 28.3457 35.1727 28.3457 35.1727C28.3457 35.1727 28.3457 35.1727 28.3457 35.1727C28.3457 35.1727 28.3457 35.1727 28.3457 35.1727C28.3457 35.1727 28.3457 35.1727 28.3457 35.1727C28.3457 35.1727 28.3457 35.1727 28.3457 35.1727C28.3457 35.1727 28.3457 35.1727 28.3457 35.1727C28.3457 35.1727 28.3457 35.1727 28.3457 35.1727C28.3457 35.1727 28.3457 35.1727 28.3457 35.1727C28.3457 35.1727 28.3457 35.1727 28.3457 35.1727C28.3457 35.1727 28.3457 35.1727 28.3457 35.1727C28.3457 35.1727 28.3457 35.1727 28.3457 35.1727C28.3457 35.1727 28.3457 35.1727 28.3457 35.1727C28.3456 35.1727 28.3456 35.1727 28.3456 35.1727C28.3456 35.1727 28.3456 35.1727 28.3456 35.1727C28.3456 35.1727 28.3456 35.1727 28.3456 35.1727C28.3456 35.1727 28.3456 35.1727 28.3456 35.1727C28.3456 35.1727 28.3456 35.1727 28.3456 35.1727C28.3456 35.1727 28.3456 35.1727 28.3456 35.1727C28.3456 35.1727 28.3456 35.1727 28.3456 35.1727C28.3456 35.1727 28.3456 35.1727 28.3456 35.1727C28.3456 35.1727 28.3456 35.1727 28.3456 35.1727C28.3456 35.1727 28.3456 35.1727 28.3456 35.1727C28.3456 35.1727 28.3456 35.1727 28.3456 35.1727C28.3456 35.1727 28.3456 35.1727 28.3456 35.1727C28.3456 35.1727 28.3456 35.1727 28.3456 35.1727C28.3456 35.1727 28.3456 35.1727 28.3456 35.1727C28.3456 35.1727 28.3456 35.1727 28.3456 35.1727C28.3456 35.1727 28.3456 35.1727 28.3456 35.1727C28.3456 35.1727 28.3456 35.1727 28.3455 35.1727C28.3455 35.1727 28.3455 35.1727 28.3455 35.1727C28.3455 35.1727 28.3455 35.1727 28.3455 35.1727C28.3455 35.1727 28.3455 35.1727 28.3455 35.1727C28.3455 35.1727 28.3455 35.1727 28.3455 35.1727C28.3455 35.1727 28.3455 35.1727 28.3455 35.1727C28.3455 35.1727 28.3455 35.1727 28.3455 35.1727C28.3455 35.1727 28.3455 35.1727 28.3455 35.1727C28.3455 35.1727 28.3455 35.1727 28.3455 35.1727C28.3455 35.1727 28.3455 35.1727 28.3455 35.1727C28.3455 35.1727 28.3455 35.1727 28.3455 35.1727C28.3455 35.1727 28.3455 35.1727 28.3455 35.1727C28.3455 35.1727 28.3455 35.1727 28.3455 35.1727C28.3455 35.1727 28.3455 35.1727 28.3455 35.1727C28.3455 35.1727 28.3455 35.1727 28.3455 35.1727C28.3455 35.1727 28.3455 35.1727 28.3455 35.1727C28.3455 35.1727 28.3455 35.1727 28.3455 35.1727C28.3454 35.1727 28.3454 35.1727 28.3454 35.1727C28.3454 35.1727 28.3454 35.1727 28.3454 35.1727C28.3454 35.1727 28.3454 35.1727 28.3454 35.1727C28.3454 35.1727 28.3454 35.1727 28.3454 35.1727C28.3454 35.1727 28.3454 35.1727 28.3454 35.1727C28.3454 35.1727 28.3454 35.1727 28.3454 35.1727C28.3454 35.1727 28.3454 35.1727 28.3454 35.1727C28.3454 35.1727 28.3454 35.1727 28.3454 35.1727C28.3454 35.1727 28.3454 35.1727 28.3454 35.1727C28.3454 35.1727 28.3454 35.1727 28.3454 35.1727C28.3454 35.1727 28.3454 35.1727 28.3454 35.1727C28.3454 35.1727 28.3454 35.1727 28.3454 35.1727C28.3454 35.1727 28.3454 35.1727 28.3454 35.1727C28.3454 35.1727 28.3454 35.1727 28.3454 35.1727C28.3454 35.1727 28.3454 35.1727 28.3454 35.1727C28.3454 35.1727 28.3454 35.1727 28.3454 35.1727C28.3454 35.1727 28.3454 35.1727 28.3453 35.1727C28.3453 35.1727 28.3453 35.1727 28.3453 35.1727C28.3453 35.1727 28.3453 35.1727 28.3453 35.1727C28.3453 35.1727 28.3453 35.1727 28.3453 35.1727C28.3453 35.1727 28.3453 35.1727 28.3453 35.1727C28.3453 35.1727 28.3453 35.1727 28.3453 35.1727C28.3453 35.1727 28.3453 35.1727 28.3453 35.1727C28.3453 35.1727 28.3453 35.1727 28.3453 35.1727C28.3453 35.1727 28.3453 35.1727 28.3453 35.1727C28.3453 35.1727 28.3453 35.1727 28.3453 35.1727C28.3453 35.1727 28.3453 35.1727 28.3453 35.1727C28.3453 35.1727 28.3453 35.1727 28.3453 35.1727C28.3453 35.1727 28.3453 35.1727 28.3453 35.1727C28.3453 35.1727 28.3453 35.1727 28.3453 35.1727C28.3453 35.1727 28.3453 35.1727 28.3453 35.1727C28.3453 35.1727 28.3453 35.1727 28.3453 35.1727C28.3453 35.1727 28.3453 35.1727 28.3453 35.1727C28.3453 35.1727 28.3452 35.1727 28.3452 35.1727C28.3452 35.1727 28.3452 35.1727 28.3452 35.1727C28.3452 35.1727 28.3452 35.1727 28.3452 35.1727C28.3452 35.1727 28.3452 35.1727 28.3452 35.1727C28.3452 35.1727 28.3452 35.1727 28.3452 35.1727C28.3452 35.1727 28.3452 35.1727 28.3452 35.1727C28.3452 35.1727 28.3452 35.1727 28.3452 35.1727C28.3452 35.1727 28.3452 35.1727 28.3452 35.1727C28.3452 35.1727 28.3452 35.1727 28.3452 35.1727C28.3452 35.1727 28.3452 35.1727 28.3452 35.1727C28.3452 35.1727 28.3452 35.1727 28.3452 35.1727C28.3452 35.1727 28.3452 35.1727 28.3452 35.1727C28.3452 35.1727 28.3452 35.1727 28.3452 35.1727C28.3452 35.1727 28.3452 35.1727 28.3452 35.1727C28.3452 35.1727 28.3452 35.1727 28.3452 35.1727C28.3452 35.1727 28.3452 35.1727 28.3452 35.1727C28.3452 35.1727 28.3452 35.1727 28.3451 35.1727C28.3451 35.1727 28.3451 35.1727 28.3451 35.1727C28.3451 35.1727 28.3451 35.1727 28.3451 35.1727C28.3451 35.1727 28.3451 35.1727 28.3451 35.1727C28.3451 35.1727 28.3451 35.1727 28.3451 35.1727C28.3451 35.1727 28.3451 35.1727 28.3451 35.1727C28.3451 35.1727 28.3451 35.1727 28.3451 35.1727C28.3451 35.1727 28.3451 35.1727 28.3451 35.1727C28.3451 35.1727 28.3451 35.1727 28.3451 35.1727C28.3451 35.1727 28.3451 35.1727 28.3451 35.1727C28.3451 35.1727 28.3451 35.1727 28.3451 35.1727C28.3451 35.1727 28.3451 35.1727 28.3451 35.1727C28.3451 35.1727 28.3451 35.1727 28.3451 35.1727C28.3451 35.1727 28.3451 35.1727 28.3451 35.1727C28.3451 35.1727 28.3451 35.1727 28.3451 35.1727C28.3451 35.1727 28.3451 35.1727 28.3451 35.1727C28.3451 35.1727 28.3451 35.1727 28.3451 35.1727C28.3451 35.1727 28.345 35.1727 28.345 35.1727C28.345 35.1727 28.345 35.1727 28.345 35.1727C28.345 35.1727 28.345 35.1727 28.345 35.1727C28.345 35.1727 28.345 35.1727 28.345 35.1727C28.345 35.1727 28.345 35.1727 28.345 35.1727C28.345 35.1727 28.345 35.1727 28.345 35.1727C28.345 35.1727 28.345 35.1727 28.345 35.1727C28.345 35.1727 28.345 35.1727 28.345 35.1727C28.345 35.1727 28.345 35.1727 28.345 35.1727C28.345 35.1727 28.345 35.1727 28.345 35.1727C28.345 35.1727 28.345 35.1727 28.345 35.1727C28.345 35.1727 28.345 35.1727 28.345 35.1727C28.345 35.1727 28.345 35.1727 28.345 35.1727C28.345 35.1727 28.345 35.1727 28.345 35.1727C28.345 35.1727 28.345 35.1727 28.345 35.1727C28.345 35.1727 28.345 35.1727 28.345 35.1727C28.345 35.1727 28.345 35.1727 28.345 35.1727C28.3449 35.1727 28.3449 35.1727 28.3449 35.1727C28.3449 35.1727 28.3449 35.1727 28.3449 35.1727C28.3449 35.1727 28.3449 35.1727 28.3449 35.1727C28.3449 35.1727 28.3449 35.1727 28.3449 35.1727C28.3449 35.1727 28.3449 35.1727 28.3449 35.1727C28.3449 35.1727 28.3449 35.1727 28.3449 35.1727C28.3449 35.1727 28.3449 35.1727 28.3449 35.1727C28.3449 35.1727 28.3449 35.1727 28.3449 35.1727C28.3449 35.1727 28.3449 35.1727 28.3449 35.1727C28.3449 35.1727 28.3449 35.1727 28.3449 35.1727C28.3449 35.1727 28.3449 35.1727 28.3449 35.1727C28.3449 35.1727 28.3449 35.1727 28.3449 35.1727C28.3449 35.1727 28.3449 35.1727 28.3449 35.1727C28.3449 35.1727 28.3449 35.1727 28.3449 35.1727C28.3449 35.1727 28.3449 35.1727 28.3449 35.1727C28.3449 35.1727 28.3449 35.1727 28.3449 35.1727C28.3449 35.1727 28.3448 35.1727 28.3448 35.1727C28.3448 35.1727 28.3448 35.1727 28.3448 35.1727C28.3448 35.1727 28.3448 35.1727 28.3448 35.1727C28.3448 35.1727 28.3448 35.1727 28.3448 35.1727C28.3448 35.1727 28.3448 35.1727 28.3448 35.1727C28.3448 35.1727 28.3448 35.1727 28.3448 35.1727C28.3448 35.1727 28.3448 35.1727 28.3448 35.1727C28.3448 35.1727 28.3448 35.1727 28.3448 35.1727C28.3448 35.1727 28.3448 35.1727 28.3448 35.1727C28.3448 35.1727 28.3448 35.1727 28.3448 35.1727C28.3448 35.1727 28.3448 35.1727 28.3448 35.1727C28.3448 35.1727 28.3448 35.1727 28.3448 35.1727C28.3448 35.1727 28.3448 35.1727 28.3448 35.1727C28.3448 35.1727 28.3448 35.1727 28.3448 35.1727C28.3448 35.1727 28.3448 35.1727 28.3448 35.1727C28.3448 35.1727 28.3448 35.1727 28.3448 35.1727C28.3448 35.1727 28.3448 35.1727 28.3448 35.1727C28.3447 35.1727 28.3447 35.1727 28.3447 35.1727C28.3447 35.1727 28.3447 35.1727 28.3447 35.1727C28.3447 35.1727 28.3447 35.1727 28.3447 35.1727C28.3447 35.1727 28.3447 35.1727 28.3447 35.1727C28.3447 35.1727 28.3447 35.1727 28.3447 35.1727C28.3447 35.1727 28.3447 35.1727 28.3447 35.1727C28.3447 35.1727 28.3447 35.1727 28.3447 35.1727C28.3447 35.1727 28.3447 35.1727 28.3447 35.1727C28.3447 35.1727 28.3447 35.1727 28.3447 35.1727C28.3447 35.1727 28.3447 35.1727 28.3447 35.1727C28.3447 35.1727 28.3447 35.1727 28.3447 35.1727C28.3447 35.1727 28.3447 35.1727 28.3447 35.1727C28.3447 35.1727 28.3447 35.1727 28.3447 35.1727C28.3447 35.1727 28.3447 35.1727 28.3447 35.1727C28.3447 35.1727 28.3447 35.1727 28.3447 35.1727C28.3447 35.1727 28.3447 35.1727 28.3447 35.1727C28.3447 35.1727 28.3447 35.1727 28.3446 35.1727C28.3446 35.1727 28.3446 35.1727 28.3446 35.1727C28.3446 35.1727 28.3446 35.1727 28.3446 35.1727C28.3446 35.1727 28.3446 35.1727 28.3446 35.1727C28.3446 35.1727 28.3446 35.1727 28.3446 35.1727C28.3446 35.1727 28.3446 35.1727 28.3446 35.1727C28.3446 35.1727 28.3446 35.1727 28.3446 35.1727C28.3446 35.1727 28.3446 35.1727 28.3446 35.1727C28.3446 35.1727 28.3446 35.1727 28.3446 35.1727C28.3446 35.1727 28.3446 35.1727 28.3446 35.1727C28.3446 35.1727 28.3446 35.1727 28.3446 35.1727C28.3446 35.1727 28.3446 35.1727 28.3446 35.1727C28.3446 35.1727 28.3446 35.1727 28.3446 35.1727C28.3446 35.1727 28.3446 35.1727 28.3446 35.1727C28.3446 35.1727 28.3446 35.1727 28.3446 35.1727C28.3446 35.1727 28.3446 35.1727 28.3446 35.1727C28.3446 35.1727 28.3446 35.1727 28.3446 35.1727C28.3445 35.1727 28.3445 35.1727 28.3445 35.1727C28.3445 35.1727 28.3445 35.1727 28.3445 35.1727C28.3445 35.1727 28.3445 35.1727 28.3445 35.1727C28.3445 35.1727 28.3445 35.1727 28.3445 35.1727C28.3445 35.1727 28.3445 35.1727 28.3445 35.1727C28.3445 35.1727 28.3445 35.1727 28.3445 35.1727C28.3445 35.1727 28.3445 35.1727 28.3445 35.1727C28.3445 35.1727 28.3445 35.1727 28.3445 35.1727C28.3445 35.1727 28.3445 35.1727 28.3445 35.1727C28.3445 35.1727 28.3445 35.1727 28.3445 35.1727C28.3445 35.1727 28.3445 35.1727 28.3445 35.1727C28.3445 35.1727 28.3445 35.1727 28.3445 35.1727C28.3445 35.1727 28.3445 35.1727 28.3445 35.1727C28.3445 35.1727 28.3445 35.1727 28.3445 35.1727C28.3445 35.1727 28.3445 35.1727 28.3445 35.1727C28.3445 35.1727 28.3445 35.1727 28.3445 35.1727C28.3445 35.1727 28.3445 35.1727 28.3444 35.1727C28.3444 35.1727 28.3444 35.1727 28.3444 35.1727C28.3444 35.1727 28.3444 35.1727 28.3444 35.1727C28.3444 35.1727 28.3444 35.1727 28.3444 35.1727C28.3444 35.1727 28.3444 35.1727 28.3444 35.1727C28.3444 35.1727 28.3444 35.1727 28.3444 35.1727C28.3444 35.1727 28.3444 35.1727 28.3444 35.1727C28.3444 35.1727 28.3444 35.1727 28.3444 35.1727C28.3444 35.1727 28.3444 35.1727 28.3444 35.1727C28.3444 35.1727 28.3444 35.1727 28.3444 35.1727C28.3444 35.1727 28.3444 35.1727 28.3444 35.1727C28.3444 35.1727 28.3444 35.1727 28.3444 35.1727C28.3444 35.1727 28.3444 35.1727 28.3444 35.1727C28.3444 35.1727 28.3444 35.1727 28.3444 35.1727C28.3444 35.1727 28.3444 35.1727 28.3444 35.1727C28.3444 35.1727 28.3444 35.1727 28.3444 35.1727C28.3444 35.1727 28.3444 35.1727 28.3444 35.1727C28.3443 35.1727 28.3443 35.1727 28.3443 35.1727C28.3443 35.1727 28.3443 35.1727 28.3443 35.1727C28.3443 35.1727 28.3443 35.1727 28.3443 35.1727C28.3443 35.1727 28.3443 35.1727 28.3443 35.1727C28.3443 35.1727 28.3443 35.1727 28.3443 35.1727C28.3443 35.1727 28.3443 35.1727 28.3443 35.1727C28.3443 35.1727 28.3443 35.1727 28.3443 35.1727C28.3443 35.1727 28.3443 35.1727 28.3443 35.1727C28.3443 35.1727 28.3443 35.1727 28.3443 35.1727C28.3443 35.1727 28.3443 35.1727 28.3443 35.1727C28.3443 35.1727 28.3443 35.1727 28.3443 35.1727C28.3443 35.1727 28.3443 35.1727 28.3443 35.1727C28.3443 35.1727 28.3443 35.1727 28.3443 35.1727C28.3443 35.1727 28.3443 35.1727 28.3443 35.1727C28.3443 35.1727 28.3443 35.1727 28.3443 35.1727C28.3443 35.1727 28.3443 35.1727 28.3443 35.1727C28.3443 35.1727 28.3443 35.1727 28.3442 35.1727C28.3442 35.1727 28.3442 35.1727 28.3442 35.1727C28.3442 35.1727 28.3442 35.1727 28.3442 35.1727C28.3442 35.1727 28.3442 35.1727 28.3442 35.1727C28.3442 35.1727 28.3442 35.1727 28.3442 35.1727C28.3442 35.1727 28.3442 35.1727 28.3442 35.1727C28.3442 35.1727 28.3442 35.1727 28.3442 35.1727C28.3442 35.1727 28.3442 35.1727 28.3442 35.1727C28.3442 35.1727 28.3442 35.1727 28.3442 35.1727C28.3442 35.1727 28.3442 35.1727 28.3442 35.1727C28.3442 35.1727 28.3442 35.1727 28.3442 35.1727C28.3442 35.1727 28.3442 35.1727 28.3442 35.1727C28.3442 35.1727 28.3442 35.1727 28.3442 35.1727C28.3442 35.1727 28.3442 35.1727 28.3442 35.1727C28.3442 35.1727 28.3442 35.1727 28.3442 35.1727C28.3442 35.1727 28.3442 35.1727 28.3442 35.1727C28.3442 35.1727 28.3442 35.1727 28.3442 35.1727C28.3442 35.1727 28.3441 35.1727 28.3441 35.1727C28.3441 35.1727 28.3441 35.1727 28.3441 35.1727C28.3441 35.1727 28.3441 35.1727 28.3441 35.1727C28.3441 35.1727 28.3441 35.1727 28.3441 35.1727C28.3441 35.1727 28.3441 35.1727 28.3441 35.1727C28.3441 35.1727 28.3441 35.1727 28.3441 35.1727C28.3441 35.1727 28.3441 35.1727 28.3441 35.1727C28.3441 35.1727 28.3441 35.1727 28.3441 35.1727C28.3441 35.1727 28.3441 35.1727 28.3441 35.1727C28.3441 35.1727 28.3441 35.1727 28.3441 35.1727C28.3441 35.1727 28.3441 35.1727 28.3441 35.1727C28.3441 35.1727 28.3441 35.1727 28.3441 35.1727C28.3441 35.1727 28.3441 35.1727 28.3441 35.1727C28.3441 35.1727 28.3441 35.1727 28.3441 35.1727C28.3441 35.1727 28.3441 35.1727 28.3441 35.1727C28.3441 35.1727 28.3441 35.1727 28.3441 35.1727C28.3441 35.1727 28.3441 35.1727 28.3441 35.1727C28.344 35.1727 28.344 35.1727 28.344 35.1727C28.344 35.1727 28.344 35.1727 28.344 35.1727C28.344 35.1727 28.344 35.1727 28.344 35.1727C28.344 35.1727 28.344 35.1727 28.344 35.1727C28.344 35.1727 28.344 35.1727 28.344 35.1727C28.344 35.1727 28.344 35.1727 28.344 35.1727C28.344 35.1727 28.344 35.1727 28.344 35.1727C28.344 35.1727 28.344 35.1727 28.344 35.1727C28.344 35.1727 28.344 35.1727 28.344 35.1727C28.344 35.1727 28.344 35.1727 28.344 35.1727C28.344 35.1727 28.344 35.1727 28.344 35.1727C28.344 35.1727 28.344 35.1727 28.344 35.1727C28.344 35.1727 28.344 35.1727 28.344 35.1727C28.344 35.1727 28.344 35.1727 28.344 35.1727C28.344 35.1727 28.344 35.1727 28.344 35.1727C28.344 35.1727 28.344 35.1727 28.344 35.1727C28.344 35.1727 28.3439 35.1727 28.3439 35.1727C28.3439 35.1727 28.3439 35.1727 28.3439 35.1727C28.3439 35.1727 28.3439 35.1727 28.3439 35.1727C28.3439 35.1727 28.3439 35.1727 28.3439 35.1727C28.3439 35.1727 28.3439 35.1727 28.3439 35.1727C28.3439 35.1727 28.3439 35.1727 28.3439 35.1727C28.3439 35.1727 28.3439 35.1727 28.3439 35.1727C28.3439 35.1727 28.3439 35.1727 28.3439 35.1727C28.3439 35.1727 28.3439 35.1727 28.3439 35.1727C28.3439 35.1727 28.3439 35.1727 28.3439 35.1727C28.3439 35.1727 28.3439 35.1727 28.3439 35.1727C28.3439 35.1727 28.3439 35.1727 28.3439 35.1727C28.3439 35.1727 28.3439 35.1727 28.3439 35.1727C28.3439 35.1727 28.3439 35.1727 28.3439 35.1727C28.3439 35.1727 28.3439 35.1727 28.3439 35.1727C28.3439 35.1727 28.3439 35.1727 28.3439 35.1727C28.3439 35.1727 28.3439 35.1727 28.3439 35.1727C28.3438 35.1727 28.3438 35.1727 28.3438 35.1727C28.3438 35.1727 28.3438 35.1727 28.3438 35.1727C28.3438 35.1727 28.3438 35.1727 28.3438 35.1727C28.3438 35.1727 28.3438 35.1727 28.3438 35.1727C28.3438 35.1727 28.3438 35.1727 28.3438 35.1727C28.3438 35.1727 28.3438 35.1727 28.3438 35.1727C28.3438 35.1727 28.3438 35.1727 28.3438 35.1727C28.3438 35.1727 28.3438 35.1727 28.3438 35.1727C28.3438 35.1727 28.3438 35.1727 28.3438 35.1727C28.3438 35.1727 28.3438 35.1727 28.3438 35.1727C28.3438 35.1727 28.3438 35.1727 28.3438 35.1727C28.3438 35.1727 28.3438 35.1727 28.3438 35.1727C28.3438 35.1727 28.3438 35.1727 28.3438 35.1727C28.3438 35.1727 28.3438 35.1727 28.3438 35.1727C28.3438 35.1727 28.3438 35.1727 28.3438 35.1727C28.3438 35.1727 28.3438 35.1727 28.3438 35.1727C28.3438 35.1727 28.3438 35.1727 28.3437 35.1727C28.3437 35.1727 28.3437 35.1727 28.3437 35.1727C28.3437 35.1727 28.3437 35.1727 28.3437 35.1727C28.3437 35.1727 28.3437 35.1727 28.3437 35.1727C28.3437 35.1727 28.3437 35.1727 28.3437 35.1727C28.3437 35.1727 28.3437 35.1727 28.3437 35.1727C28.3437 35.1727 28.3437 35.1727 28.3437 35.1727C28.3437 35.1727 28.3437 35.1727 28.3437 35.1727C28.3437 35.1727 28.3437 35.1727 28.3437 35.1727C28.3437 35.1727 28.3437 35.1727 28.3437 35.1727C28.3437 35.1727 28.3437 35.1727 28.3437 35.1727C28.3437 35.1727 28.3437 35.1727 28.3437 35.1727C28.3437 35.1727 28.3437 35.1727 28.3437 35.1727C28.3437 35.1727 28.3437 35.1727 28.3437 35.1727C28.3437 35.1727 28.3437 35.1727 28.3437 35.1727C28.3437 35.1727 28.3437 35.1727 28.3437 35.1727C28.3437 35.1727 28.3437 35.1727 28.3437 35.1727C28.3436 35.1727 28.3436 35.1727 28.3436 35.1727C28.3436 35.1727 28.3436 35.1727 28.3436 35.1727C28.3436 35.1727 28.3436 35.1727 28.3436 35.1727C28.3436 35.1727 28.3436 35.1727 28.3436 35.1727C28.3436 35.1727 28.3436 35.1727 28.3436 35.1727C28.3436 35.1727 28.3436 35.1727 28.3436 35.1727C28.3436 35.1727 28.3436 35.1727 28.3436 35.1727C28.3436 35.1727 28.3436 35.1727 28.3436 35.1727C28.3436 35.1727 28.3436 35.1727 28.3436 35.1727C28.3436 35.1727 28.3436 35.1727 28.3436 35.1727V38.1727V41.1727C28.3436 41.1727 28.3436 41.1727 28.3436 41.1727C28.3436 41.1727 28.3436 41.1727 28.3436 41.1727C28.3436 41.1727 28.3436 41.1727 28.3436 41.1727C28.3436 41.1727 28.3436 41.1727 28.3436 41.1727C28.3436 41.1727 28.3436 41.1727 28.3436 41.1727C28.3436 41.1727 28.3436 41.1727 28.3436 41.1727C28.3436 41.1727 28.3436 41.1727 28.3436 41.1727C28.3436 41.1727 28.3436 41.1727 28.3436 41.1727C28.3436 41.1727 28.3436 41.1727 28.3436 41.1727C28.3436 41.1727 28.3436 41.1727 28.3437 41.1727C28.3437 41.1727 28.3437 41.1727 28.3437 41.1727C28.3437 41.1727 28.3437 41.1727 28.3437 41.1727C28.3437 41.1727 28.3437 41.1727 28.3437 41.1727C28.3437 41.1727 28.3437 41.1727 28.3437 41.1727C28.3437 41.1727 28.3437 41.1727 28.3437 41.1727C28.3437 41.1727 28.3437 41.1727 28.3437 41.1727C28.3437 41.1727 28.3437 41.1727 28.3437 41.1727C28.3437 41.1727 28.3437 41.1727 28.3437 41.1727C28.3437 41.1727 28.3437 41.1727 28.3437 41.1727C28.3437 41.1727 28.3437 41.1727 28.3437 41.1727C28.3437 41.1727 28.3437 41.1727 28.3437 41.1727C28.3437 41.1727 28.3437 41.1727 28.3437 41.1727C28.3437 41.1727 28.3437 41.1727 28.3437 41.1727C28.3437 41.1727 28.3437 41.1727 28.3437 41.1727C28.3437 41.1727 28.3437 41.1727 28.3437 41.1727C28.3437 41.1727 28.3437 41.1727 28.3437 41.1727C28.3438 41.1727 28.3438 41.1727 28.3438 41.1727C28.3438 41.1727 28.3438 41.1727 28.3438 41.1727C28.3438 41.1727 28.3438 41.1727 28.3438 41.1727C28.3438 41.1727 28.3438 41.1727 28.3438 41.1727C28.3438 41.1727 28.3438 41.1727 28.3438 41.1727C28.3438 41.1727 28.3438 41.1727 28.3438 41.1727C28.3438 41.1727 28.3438 41.1727 28.3438 41.1727C28.3438 41.1727 28.3438 41.1727 28.3438 41.1727C28.3438 41.1727 28.3438 41.1727 28.3438 41.1727C28.3438 41.1727 28.3438 41.1727 28.3438 41.1727C28.3438 41.1727 28.3438 41.1727 28.3438 41.1727C28.3438 41.1727 28.3438 41.1727 28.3438 41.1727C28.3438 41.1727 28.3438 41.1727 28.3438 41.1727C28.3438 41.1727 28.3438 41.1727 28.3438 41.1727C28.3438 41.1727 28.3438 41.1727 28.3438 41.1727C28.3438 41.1727 28.3438 41.1727 28.3438 41.1727C28.3438 41.1727 28.3438 41.1727 28.3439 41.1727C28.3439 41.1727 28.3439 41.1727 28.3439 41.1727C28.3439 41.1727 28.3439 41.1727 28.3439 41.1727C28.3439 41.1727 28.3439 41.1727 28.3439 41.1727C28.3439 41.1727 28.3439 41.1727 28.3439 41.1727C28.3439 41.1727 28.3439 41.1727 28.3439 41.1727C28.3439 41.1727 28.3439 41.1727 28.3439 41.1727C28.3439 41.1727 28.3439 41.1727 28.3439 41.1727C28.3439 41.1727 28.3439 41.1727 28.3439 41.1727C28.3439 41.1727 28.3439 41.1727 28.3439 41.1727C28.3439 41.1727 28.3439 41.1727 28.3439 41.1727C28.3439 41.1727 28.3439 41.1727 28.3439 41.1727C28.3439 41.1727 28.3439 41.1727 28.3439 41.1727C28.3439 41.1727 28.3439 41.1727 28.3439 41.1727C28.3439 41.1727 28.3439 41.1727 28.3439 41.1727C28.3439 41.1727 28.3439 41.1727 28.3439 41.1727C28.3439 41.1727 28.3439 41.1727 28.3439 41.1727C28.3439 41.1727 28.344 41.1727 28.344 41.1727C28.344 41.1727 28.344 41.1727 28.344 41.1727C28.344 41.1727 28.344 41.1727 28.344 41.1727C28.344 41.1727 28.344 41.1727 28.344 41.1727C28.344 41.1727 28.344 41.1727 28.344 41.1727C28.344 41.1727 28.344 41.1727 28.344 41.1727C28.344 41.1727 28.344 41.1727 28.344 41.1727C28.344 41.1727 28.344 41.1727 28.344 41.1727C28.344 41.1727 28.344 41.1727 28.344 41.1727C28.344 41.1727 28.344 41.1727 28.344 41.1727C28.344 41.1727 28.344 41.1727 28.344 41.1727C28.344 41.1727 28.344 41.1727 28.344 41.1727C28.344 41.1727 28.344 41.1727 28.344 41.1727C28.344 41.1727 28.344 41.1727 28.344 41.1727C28.344 41.1727 28.344 41.1727 28.344 41.1727C28.344 41.1727 28.344 41.1727 28.344 41.1727C28.344 41.1727 28.344 41.1727 28.3441 41.1727C28.3441 41.1727 28.3441 41.1727 28.3441 41.1727C28.3441 41.1727 28.3441 41.1727 28.3441 41.1727C28.3441 41.1727 28.3441 41.1727 28.3441 41.1727C28.3441 41.1727 28.3441 41.1727 28.3441 41.1727C28.3441 41.1727 28.3441 41.1727 28.3441 41.1727C28.3441 41.1727 28.3441 41.1727 28.3441 41.1727C28.3441 41.1727 28.3441 41.1727 28.3441 41.1727C28.3441 41.1727 28.3441 41.1727 28.3441 41.1727C28.3441 41.1727 28.3441 41.1727 28.3441 41.1727C28.3441 41.1727 28.3441 41.1727 28.3441 41.1727C28.3441 41.1727 28.3441 41.1727 28.3441 41.1727C28.3441 41.1727 28.3441 41.1727 28.3441 41.1727C28.3441 41.1727 28.3441 41.1727 28.3441 41.1727C28.3441 41.1727 28.3441 41.1727 28.3441 41.1727C28.3441 41.1727 28.3441 41.1727 28.3441 41.1727C28.3441 41.1727 28.3441 41.1727 28.3441 41.1727C28.3441 41.1727 28.3442 41.1727 28.3442 41.1727C28.3442 41.1727 28.3442 41.1727 28.3442 41.1727C28.3442 41.1727 28.3442 41.1727 28.3442 41.1727C28.3442 41.1727 28.3442 41.1727 28.3442 41.1727C28.3442 41.1727 28.3442 41.1727 28.3442 41.1727C28.3442 41.1727 28.3442 41.1727 28.3442 41.1727C28.3442 41.1727 28.3442 41.1727 28.3442 41.1727C28.3442 41.1727 28.3442 41.1727 28.3442 41.1727C28.3442 41.1727 28.3442 41.1727 28.3442 41.1727C28.3442 41.1727 28.3442 41.1727 28.3442 41.1727C28.3442 41.1727 28.3442 41.1727 28.3442 41.1727C28.3442 41.1727 28.3442 41.1727 28.3442 41.1727C28.3442 41.1727 28.3442 41.1727 28.3442 41.1727C28.3442 41.1727 28.3442 41.1727 28.3442 41.1727C28.3442 41.1727 28.3442 41.1727 28.3442 41.1727C28.3442 41.1727 28.3442 41.1727 28.3442 41.1727C28.3442 41.1727 28.3442 41.1727 28.3442 41.1727C28.3443 41.1727 28.3443 41.1727 28.3443 41.1727C28.3443 41.1727 28.3443 41.1727 28.3443 41.1727C28.3443 41.1727 28.3443 41.1727 28.3443 41.1727C28.3443 41.1727 28.3443 41.1727 28.3443 41.1727C28.3443 41.1727 28.3443 41.1727 28.3443 41.1727C28.3443 41.1727 28.3443 41.1727 28.3443 41.1727C28.3443 41.1727 28.3443 41.1727 28.3443 41.1727C28.3443 41.1727 28.3443 41.1727 28.3443 41.1727C28.3443 41.1727 28.3443 41.1727 28.3443 41.1727C28.3443 41.1727 28.3443 41.1727 28.3443 41.1727C28.3443 41.1727 28.3443 41.1727 28.3443 41.1727C28.3443 41.1727 28.3443 41.1727 28.3443 41.1727C28.3443 41.1727 28.3443 41.1727 28.3443 41.1727C28.3443 41.1727 28.3443 41.1727 28.3443 41.1727C28.3443 41.1727 28.3443 41.1727 28.3443 41.1727C28.3443 41.1727 28.3443 41.1727 28.3443 41.1727C28.3443 41.1727 28.3443 41.1727 28.3444 41.1727C28.3444 41.1727 28.3444 41.1727 28.3444 41.1727C28.3444 41.1727 28.3444 41.1727 28.3444 41.1727C28.3444 41.1727 28.3444 41.1727 28.3444 41.1727C28.3444 41.1727 28.3444 41.1727 28.3444 41.1727C28.3444 41.1727 28.3444 41.1727 28.3444 41.1727C28.3444 41.1727 28.3444 41.1727 28.3444 41.1727C28.3444 41.1727 28.3444 41.1727 28.3444 41.1727C28.3444 41.1727 28.3444 41.1727 28.3444 41.1727C28.3444 41.1727 28.3444 41.1727 28.3444 41.1727C28.3444 41.1727 28.3444 41.1727 28.3444 41.1727C28.3444 41.1727 28.3444 41.1727 28.3444 41.1727C28.3444 41.1727 28.3444 41.1727 28.3444 41.1727C28.3444 41.1727 28.3444 41.1727 28.3444 41.1727C28.3444 41.1727 28.3444 41.1727 28.3444 41.1727C28.3444 41.1727 28.3444 41.1727 28.3444 41.1727C28.3444 41.1727 28.3444 41.1727 28.3444 41.1727C28.3445 41.1727 28.3445 41.1727 28.3445 41.1727C28.3445 41.1727 28.3445 41.1727 28.3445 41.1727C28.3445 41.1727 28.3445 41.1727 28.3445 41.1727C28.3445 41.1727 28.3445 41.1727 28.3445 41.1727C28.3445 41.1727 28.3445 41.1727 28.3445 41.1727C28.3445 41.1727 28.3445 41.1727 28.3445 41.1727C28.3445 41.1727 28.3445 41.1727 28.3445 41.1727C28.3445 41.1727 28.3445 41.1727 28.3445 41.1727C28.3445 41.1727 28.3445 41.1727 28.3445 41.1727C28.3445 41.1727 28.3445 41.1727 28.3445 41.1727C28.3445 41.1727 28.3445 41.1727 28.3445 41.1727C28.3445 41.1727 28.3445 41.1727 28.3445 41.1727C28.3445 41.1727 28.3445 41.1727 28.3445 41.1727C28.3445 41.1727 28.3445 41.1727 28.3445 41.1727C28.3445 41.1727 28.3445 41.1727 28.3445 41.1727C28.3445 41.1727 28.3445 41.1727 28.3445 41.1727C28.3445 41.1727 28.3445 41.1727 28.3446 41.1727C28.3446 41.1727 28.3446 41.1727 28.3446 41.1727C28.3446 41.1727 28.3446 41.1727 28.3446 41.1727C28.3446 41.1727 28.3446 41.1727 28.3446 41.1727C28.3446 41.1727 28.3446 41.1727 28.3446 41.1727C28.3446 41.1727 28.3446 41.1727 28.3446 41.1727C28.3446 41.1727 28.3446 41.1727 28.3446 41.1727C28.3446 41.1727 28.3446 41.1727 28.3446 41.1727C28.3446 41.1727 28.3446 41.1727 28.3446 41.1727C28.3446 41.1727 28.3446 41.1727 28.3446 41.1727C28.3446 41.1727 28.3446 41.1727 28.3446 41.1727C28.3446 41.1727 28.3446 41.1727 28.3446 41.1727C28.3446 41.1727 28.3446 41.1727 28.3446 41.1727C28.3446 41.1727 28.3446 41.1727 28.3446 41.1727C28.3446 41.1727 28.3446 41.1727 28.3446 41.1727C28.3446 41.1727 28.3446 41.1727 28.3446 41.1727C28.3446 41.1727 28.3446 41.1727 28.3446 41.1727C28.3447 41.1727 28.3447 41.1727 28.3447 41.1727C28.3447 41.1727 28.3447 41.1727 28.3447 41.1727C28.3447 41.1727 28.3447 41.1727 28.3447 41.1727C28.3447 41.1727 28.3447 41.1727 28.3447 41.1727C28.3447 41.1727 28.3447 41.1727 28.3447 41.1727C28.3447 41.1727 28.3447 41.1727 28.3447 41.1727C28.3447 41.1727 28.3447 41.1727 28.3447 41.1727C28.3447 41.1727 28.3447 41.1727 28.3447 41.1727C28.3447 41.1727 28.3447 41.1727 28.3447 41.1727C28.3447 41.1727 28.3447 41.1727 28.3447 41.1727C28.3447 41.1727 28.3447 41.1727 28.3447 41.1727C28.3447 41.1727 28.3447 41.1727 28.3447 41.1727C28.3447 41.1727 28.3447 41.1727 28.3447 41.1727C28.3447 41.1727 28.3447 41.1727 28.3447 41.1727C28.3447 41.1727 28.3447 41.1727 28.3447 41.1727C28.3447 41.1727 28.3447 41.1727 28.3447 41.1727C28.3447 41.1727 28.3447 41.1727 28.3448 41.1727C28.3448 41.1727 28.3448 41.1727 28.3448 41.1727C28.3448 41.1727 28.3448 41.1727 28.3448 41.1727C28.3448 41.1727 28.3448 41.1727 28.3448 41.1727C28.3448 41.1727 28.3448 41.1727 28.3448 41.1727C28.3448 41.1727 28.3448 41.1727 28.3448 41.1727C28.3448 41.1727 28.3448 41.1727 28.3448 41.1727C28.3448 41.1727 28.3448 41.1727 28.3448 41.1727C28.3448 41.1727 28.3448 41.1727 28.3448 41.1727C28.3448 41.1727 28.3448 41.1727 28.3448 41.1727C28.3448 41.1727 28.3448 41.1727 28.3448 41.1727C28.3448 41.1727 28.3448 41.1727 28.3448 41.1727C28.3448 41.1727 28.3448 41.1727 28.3448 41.1727C28.3448 41.1727 28.3448 41.1727 28.3448 41.1727C28.3448 41.1727 28.3448 41.1727 28.3448 41.1727C28.3448 41.1727 28.3448 41.1727 28.3448 41.1727C28.3448 41.1727 28.3448 41.1727 28.3448 41.1727C28.3448 41.1727 28.3449 41.1727 28.3449 41.1727C28.3449 41.1727 28.3449 41.1727 28.3449 41.1727C28.3449 41.1727 28.3449 41.1727 28.3449 41.1727C28.3449 41.1727 28.3449 41.1727 28.3449 41.1727C28.3449 41.1727 28.3449 41.1727 28.3449 41.1727C28.3449 41.1727 28.3449 41.1727 28.3449 41.1727C28.3449 41.1727 28.3449 41.1727 28.3449 41.1727C28.3449 41.1727 28.3449 41.1727 28.3449 41.1727C28.3449 41.1727 28.3449 41.1727 28.3449 41.1727C28.3449 41.1727 28.3449 41.1727 28.3449 41.1727C28.3449 41.1727 28.3449 41.1727 28.3449 41.1727C28.3449 41.1727 28.3449 41.1727 28.3449 41.1727C28.3449 41.1727 28.3449 41.1727 28.3449 41.1727C28.3449 41.1727 28.3449 41.1727 28.3449 41.1727C28.3449 41.1727 28.3449 41.1727 28.3449 41.1727C28.3449 41.1727 28.3449 41.1727 28.3449 41.1727C28.3449 41.1727 28.3449 41.1727 28.345 41.1727C28.345 41.1727 28.345 41.1727 28.345 41.1727C28.345 41.1727 28.345 41.1727 28.345 41.1727C28.345 41.1727 28.345 41.1727 28.345 41.1727C28.345 41.1727 28.345 41.1727 28.345 41.1727C28.345 41.1727 28.345 41.1727 28.345 41.1727C28.345 41.1727 28.345 41.1727 28.345 41.1727C28.345 41.1727 28.345 41.1727 28.345 41.1727C28.345 41.1727 28.345 41.1727 28.345 41.1727C28.345 41.1727 28.345 41.1727 28.345 41.1727C28.345 41.1727 28.345 41.1727 28.345 41.1727C28.345 41.1727 28.345 41.1727 28.345 41.1727C28.345 41.1727 28.345 41.1727 28.345 41.1727C28.345 41.1727 28.345 41.1727 28.345 41.1727C28.345 41.1727 28.345 41.1727 28.345 41.1727C28.345 41.1727 28.345 41.1727 28.345 41.1727C28.345 41.1727 28.345 41.1727 28.345 41.1727C28.345 41.1727 28.3451 41.1727 28.3451 41.1727C28.3451 41.1727 28.3451 41.1727 28.3451 41.1727C28.3451 41.1727 28.3451 41.1727 28.3451 41.1727C28.3451 41.1727 28.3451 41.1727 28.3451 41.1727C28.3451 41.1727 28.3451 41.1727 28.3451 41.1727C28.3451 41.1727 28.3451 41.1727 28.3451 41.1727C28.3451 41.1727 28.3451 41.1727 28.3451 41.1727C28.3451 41.1727 28.3451 41.1727 28.3451 41.1727C28.3451 41.1727 28.3451 41.1727 28.3451 41.1727C28.3451 41.1727 28.3451 41.1727 28.3451 41.1727C28.3451 41.1727 28.3451 41.1727 28.3451 41.1727C28.3451 41.1727 28.3451 41.1727 28.3451 41.1727C28.3451 41.1727 28.3451 41.1727 28.3451 41.1727C28.3451 41.1727 28.3451 41.1727 28.3451 41.1727C28.3451 41.1727 28.3451 41.1727 28.3451 41.1727C28.3451 41.1727 28.3451 41.1727 28.3451 41.1727C28.3451 41.1727 28.3451 41.1727 28.3451 41.1727C28.3452 41.1727 28.3452 41.1727 28.3452 41.1727C28.3452 41.1727 28.3452 41.1727 28.3452 41.1727C28.3452 41.1727 28.3452 41.1727 28.3452 41.1727C28.3452 41.1727 28.3452 41.1727 28.3452 41.1727C28.3452 41.1727 28.3452 41.1727 28.3452 41.1727C28.3452 41.1727 28.3452 41.1727 28.3452 41.1727C28.3452 41.1727 28.3452 41.1727 28.3452 41.1727C28.3452 41.1727 28.3452 41.1727 28.3452 41.1727C28.3452 41.1727 28.3452 41.1727 28.3452 41.1727C28.3452 41.1727 28.3452 41.1727 28.3452 41.1727C28.3452 41.1727 28.3452 41.1727 28.3452 41.1727C28.3452 41.1727 28.3452 41.1727 28.3452 41.1727C28.3452 41.1727 28.3452 41.1727 28.3452 41.1727C28.3452 41.1727 28.3452 41.1727 28.3452 41.1727C28.3452 41.1727 28.3452 41.1727 28.3452 41.1727C28.3452 41.1727 28.3452 41.1727 28.3452 41.1727C28.3452 41.1727 28.3453 41.1727 28.3453 41.1727C28.3453 41.1727 28.3453 41.1727 28.3453 41.1727C28.3453 41.1727 28.3453 41.1727 28.3453 41.1727C28.3453 41.1727 28.3453 41.1727 28.3453 41.1727C28.3453 41.1727 28.3453 41.1727 28.3453 41.1727C28.3453 41.1727 28.3453 41.1727 28.3453 41.1727C28.3453 41.1727 28.3453 41.1727 28.3453 41.1727C28.3453 41.1727 28.3453 41.1727 28.3453 41.1727C28.3453 41.1727 28.3453 41.1727 28.3453 41.1727C28.3453 41.1727 28.3453 41.1727 28.3453 41.1727C28.3453 41.1727 28.3453 41.1727 28.3453 41.1727C28.3453 41.1727 28.3453 41.1727 28.3453 41.1727C28.3453 41.1727 28.3453 41.1727 28.3453 41.1727C28.3453 41.1727 28.3453 41.1727 28.3453 41.1727C28.3453 41.1727 28.3453 41.1727 28.3453 41.1727C28.3453 41.1727 28.3453 41.1727 28.3453 41.1727C28.3453 41.1727 28.3453 41.1727 28.3453 41.1727C28.3454 41.1727 28.3454 41.1727 28.3454 41.1727C28.3454 41.1727 28.3454 41.1727 28.3454 41.1727C28.3454 41.1727 28.3454 41.1727 28.3454 41.1727C28.3454 41.1727 28.3454 41.1727 28.3454 41.1727C28.3454 41.1727 28.3454 41.1727 28.3454 41.1727C28.3454 41.1727 28.3454 41.1727 28.3454 41.1727C28.3454 41.1727 28.3454 41.1727 28.3454 41.1727C28.3454 41.1727 28.3454 41.1727 28.3454 41.1727C28.3454 41.1727 28.3454 41.1727 28.3454 41.1727C28.3454 41.1727 28.3454 41.1727 28.3454 41.1727C28.3454 41.1727 28.3454 41.1727 28.3454 41.1727C28.3454 41.1727 28.3454 41.1727 28.3454 41.1727C28.3454 41.1727 28.3454 41.1727 28.3454 41.1727C28.3454 41.1727 28.3454 41.1727 28.3454 41.1727C28.3454 41.1727 28.3454 41.1727 28.3454 41.1727C28.3454 41.1727 28.3454 41.1727 28.3454 41.1727C28.3454 41.1727 28.3454 41.1727 28.3455 41.1727C28.3455 41.1727 28.3455 41.1727 28.3455 41.1727C28.3455 41.1727 28.3455 41.1727 28.3455 41.1727C28.3455 41.1727 28.3455 41.1727 28.3455 41.1727C28.3455 41.1727 28.3455 41.1727 28.3455 41.1727C28.3455 41.1727 28.3455 41.1727 28.3455 41.1727C28.3455 41.1727 28.3455 41.1727 28.3455 41.1727C28.3455 41.1727 28.3455 41.1727 28.3455 41.1727C28.3455 41.1727 28.3455 41.1727 28.3455 41.1727C28.3455 41.1727 28.3455 41.1727 28.3455 41.1727C28.3455 41.1727 28.3455 41.1727 28.3455 41.1727C28.3455 41.1727 28.3455 41.1727 28.3455 41.1727C28.3455 41.1727 28.3455 41.1727 28.3455 41.1727C28.3455 41.1727 28.3455 41.1727 28.3455 41.1727C28.3455 41.1727 28.3455 41.1727 28.3455 41.1727C28.3455 41.1727 28.3455 41.1727 28.3455 41.1727C28.3455 41.1727 28.3455 41.1727 28.3455 41.1727C28.3456 41.1727 28.3456 41.1727 28.3456 41.1727C28.3456 41.1727 28.3456 41.1727 28.3456 41.1727C28.3456 41.1727 28.3456 41.1727 28.3456 41.1727C28.3456 41.1727 28.3456 41.1727 28.3456 41.1727C28.3456 41.1727 28.3456 41.1727 28.3456 41.1727C28.3456 41.1727 28.3456 41.1727 28.3456 41.1727C28.3456 41.1727 28.3456 41.1727 28.3456 41.1727C28.3456 41.1727 28.3456 41.1727 28.3456 41.1727C28.3456 41.1727 28.3456 41.1727 28.3456 41.1727C28.3456 41.1727 28.3456 41.1727 28.3456 41.1727C28.3456 41.1727 28.3456 41.1727 28.3456 41.1727C28.3456 41.1727 28.3456 41.1727 28.3456 41.1727C28.3456 41.1727 28.3456 41.1727 28.3456 41.1727C28.3456 41.1727 28.3456 41.1727 28.3456 41.1727C28.3456 41.1727 28.3456 41.1727 28.3456 41.1727C28.3456 41.1727 28.3456 41.1727 28.3456 41.1727C28.3456 41.1727 28.3456 41.1727 28.3457 41.1727C28.3457 41.1727 28.3457 41.1727 28.3457 41.1727C28.3457 41.1727 28.3457 41.1727 28.3457 41.1727C28.3457 41.1727 28.3457 41.1727 28.3457 41.1727C28.3457 41.1727 28.3457 41.1727 28.3457 41.1727C28.3457 41.1727 28.3457 41.1727 28.3457 41.1727C28.3457 41.1727 28.3457 41.1727 28.3457 41.1727C28.3457 41.1727 28.3457 41.1727 28.3457 41.1727C28.3457 41.1727 28.3457 41.1727 28.3457 41.1727C28.3457 41.1727 28.3457 41.1727 28.3457 41.1727C28.3457 41.1727 28.3457 41.1727 28.3457 41.1727C28.3457 41.1727 28.3457 41.1727 28.3457 41.1727C28.3457 41.1727 28.3457 41.1727 28.3457 41.1727C28.3457 41.1727 28.3457 41.1727 28.3457 41.1727C28.3457 41.1727 28.3457 41.1727 28.3457 41.1727C28.3457 41.1727 28.3457 41.1727 28.3457 41.1727C28.3457 41.1727 28.3457 41.1727 28.3457 41.1727C28.3457 41.1727 28.3458 41.1727 28.3458 41.1727C28.3458 41.1727 28.3458 41.1727 28.3458 41.1727C28.3458 41.1727 28.3458 41.1727 28.3458 41.1727C28.3458 41.1727 28.3458 41.1727 28.3458 41.1727C28.3458 41.1727 28.3458 41.1727 28.3458 41.1727C28.3458 41.1727 28.3458 41.1727 28.3458 41.1727C28.3458 41.1727 28.3458 41.1727 28.3458 41.1727C28.3458 41.1727 28.3458 41.1727 28.3458 41.1727C28.3458 41.1727 28.3458 41.1727 28.3458 41.1727C28.3458 41.1727 28.3458 41.1727 28.3458 41.1727C28.3458 41.1727 28.3458 41.1727 28.3458 41.1727C28.3458 41.1727 28.3458 41.1727 28.3458 41.1727C28.3458 41.1727 28.3458 41.1727 28.3458 41.1727C28.3458 41.1727 28.3458 41.1727 28.3458 41.1727C28.3458 41.1727 28.3458 41.1727 28.3458 41.1727C28.3458 41.1727 28.3458 41.1727 28.3458 41.1727C28.3458 41.1727 28.3458 41.1727 28.3459 41.1727C28.3459 41.1727 28.3459 41.1727 28.3459 41.1727C28.3459 41.1727 28.3459 41.1727 28.3459 41.1727C28.3459 41.1727 28.3459 41.1727 28.3459 41.1727C28.3459 41.1727 28.3459 41.1727 28.3459 41.1727C28.3459 41.1727 28.3459 41.1727 28.3459 41.1727C28.3459 41.1727 28.3459 41.1727 28.3459 41.1727C28.3459 41.1727 28.3459 41.1727 28.3459 41.1727C28.3459 41.1727 28.3459 41.1727 28.3459 41.1727C28.3459 41.1727 28.3459 41.1727 28.3459 41.1727C28.3459 41.1727 28.3459 41.1727 28.3459 41.1727C28.3459 41.1727 28.3459 41.1727 28.3459 41.1727C28.3459 41.1727 28.3459 41.1727 28.3459 41.1727C28.3459 41.1727 28.3459 41.1727 28.3459 41.1727C28.3459 41.1727 28.3459 41.1727 28.3459 41.1727C28.3459 41.1727 28.3459 41.1727 28.3459 41.1727C28.3459 41.1727 28.3459 41.1727 28.3459 41.1727C28.3459 41.1727 28.346 41.1727 28.346 41.1727C28.346 41.1727 28.346 41.1727 28.346 41.1727C28.346 41.1727 28.346 41.1727 28.346 41.1727C28.346 41.1727 28.346 41.1727 28.346 41.1727C28.346 41.1727 28.346 41.1727 28.346 41.1727C28.346 41.1727 28.346 41.1727 28.346 41.1727C28.346 41.1727 28.346 41.1727 28.346 41.1727C28.346 41.1727 28.346 41.1727 28.346 41.1727C28.346 41.1727 28.346 41.1727 28.346 41.1727C28.346 41.1727 28.346 41.1727 28.346 41.1727C28.346 41.1727 28.346 41.1727 28.346 41.1727C28.346 41.1727 28.346 41.1727 28.346 41.1727C28.346 41.1727 28.346 41.1727 28.346 41.1727C28.346 41.1727 28.346 41.1727 28.346 41.1727C28.346 41.1727 28.346 41.1727 28.346 41.1727C28.346 41.1727 28.346 41.1727 28.346 41.1727C28.346 41.1727 28.346 41.1727 28.3461 41.1727C28.3461 41.1727 28.3461 41.1727 28.3461 41.1727C28.3461 41.1727 28.3461 41.1727 28.3461 41.1727C28.3461 41.1727 28.3461 41.1727 28.3461 41.1727C28.3461 41.1727 28.3461 41.1727 28.3461 41.1727C28.3461 41.1727 28.3461 41.1727 28.3461 41.1727C28.3461 41.1727 28.3461 41.1727 28.3461 41.1727C28.3461 41.1727 28.3461 41.1727 28.3461 41.1727C28.3461 41.1727 28.3461 41.1727 28.3461 41.1727C28.3461 41.1727 28.3461 41.1727 28.3461 41.1727C28.3461 41.1727 28.3461 41.1727 28.3461 41.1727C28.3461 41.1727 28.3461 41.1727 28.3461 41.1727C28.3461 41.1727 28.3461 41.1727 28.3461 41.1727C28.3461 41.1727 28.3461 41.1727 28.3461 41.1727C28.3461 41.1727 28.3461 41.1727 28.3461 41.1727C28.3461 41.1727 28.3461 41.1727 28.3461 41.1727C28.3461 41.1727 28.3461 41.1727 28.3461 41.1727C28.3461 41.1727 28.3462 41.1727 28.3462 41.1727C28.3462 41.1727 28.3462 41.1727 28.3462 41.1727C28.3462 41.1727 28.3462 41.1727 28.3462 41.1727C28.3462 41.1727 28.3462 41.1727 28.3462 41.1727C28.3462 41.1727 28.3462 41.1727 28.3462 41.1727C28.3462 41.1727 28.3462 41.1727 28.3462 41.1727C28.3462 41.1727 28.3462 41.1727 28.3462 41.1727C28.3462 41.1727 28.3462 41.1727 28.3462 41.1727C28.3462 41.1727 28.3462 41.1727 28.3462 41.1727C28.3462 41.1727 28.3462 41.1727 28.3462 41.1727C28.3462 41.1727 28.3462 41.1727 28.3462 41.1727C28.3462 41.1727 28.3462 41.1727 28.3462 41.1727C28.3462 41.1727 28.3462 41.1727 28.3462 41.1727C28.3462 41.1727 28.3462 41.1727 28.3462 41.1727C28.3462 41.1727 28.3462 41.1727 28.3462 41.1727C28.3462 41.1727 28.3462 41.1727 28.3462 41.1727C28.3462 41.1727 28.3462 41.1727 28.3462 41.1727C28.3463 41.1727 28.3463 41.1727 28.3463 41.1727C28.3463 41.1727 28.3463 41.1727 28.3463 41.1727C28.3463 41.1727 28.3463 41.1727 28.3463 41.1727C28.3463 41.1727 28.3463 41.1727 28.3463 41.1727C28.3463 41.1727 28.3463 41.1727 28.3463 41.1727C28.3463 41.1727 28.3463 41.1727 28.3463 41.1727C28.3463 41.1727 28.3463 41.1727 28.3463 41.1727C28.3463 41.1727 28.3463 41.1727 28.3463 41.1727C28.3463 41.1727 28.3463 41.1727 28.3463 41.1727C28.3463 41.1727 28.3463 41.1727 28.3463 41.1727C28.3463 41.1727 28.3463 41.1727 28.3463 41.1727C28.3463 41.1727 28.3463 41.1727 28.3463 41.1727C28.3463 41.1727 28.3463 41.1727 28.3463 41.1727C28.3463 41.1727 28.3463 41.1727 28.3463 41.1727C28.3463 41.1727 28.3463 41.1727 28.3463 41.1727C28.3463 41.1727 28.3463 41.1727 28.3463 41.1727C28.3463 41.1727 28.3463 41.1727 28.3464 41.1727C28.3464 41.1727 28.3464 41.1727 28.3464 41.1727C28.3464 41.1727 28.3464 41.1727 28.3464 41.1727C28.3464 41.1727 28.3464 41.1727 28.3464 41.1727C28.3464 41.1727 28.3464 41.1727 28.3464 41.1727C28.3464 41.1727 28.3464 41.1727 28.3464 41.1727C28.3464 41.1727 28.3464 41.1727 28.3464 41.1727C28.3464 41.1727 28.3464 41.1727 28.3464 41.1727C28.3464 41.1727 28.3464 41.1727 28.3464 41.1727C28.3464 41.1727 28.3464 41.1727 28.3464 41.1727C28.3464 41.1727 28.3464 41.1727 28.3464 41.1727C28.3464 41.1727 28.3464 41.1727 28.3464 41.1727C28.3464 41.1727 28.3464 41.1727 28.3464 41.1727C28.3464 41.1727 28.3464 41.1727 28.3464 41.1727C28.3464 41.1727 28.3464 41.1727 28.3464 41.1727C28.3464 41.1727 28.3464 41.1727 28.3464 41.1727C28.3464 41.1727 28.3464 41.1727 28.3464 41.1727C28.3465 41.1727 28.3465 41.1727 28.3465 41.1727C28.3465 41.1727 28.3465 41.1727 28.3465 41.1727C28.3465 41.1727 28.3465 41.1727 28.3465 41.1727C28.3465 41.1727 28.3465 41.1727 28.3465 41.1727C28.3465 41.1727 28.3465 41.1727 28.3465 41.1727C28.3465 41.1727 28.3465 41.1727 28.3465 41.1727C28.3465 41.1727 28.3465 41.1727 28.3465 41.1727C28.3465 41.1727 28.3465 41.1727 28.3465 41.1727C28.3465 41.1727 28.3465 41.1727 28.3465 41.1727C28.3465 41.1727 28.3465 41.1727 28.3465 41.1727C28.3465 41.1727 28.3465 41.1727 28.3465 41.1727C28.3465 41.1727 28.3465 41.1727 28.3465 41.1727C28.3465 41.1727 28.3465 41.1727 28.3465 41.1727C28.3465 41.1727 28.3465 41.1727 28.3465 41.1727C28.3465 41.1727 28.3465 41.1727 28.3465 41.1727C28.3465 41.1727 28.3465 41.1727 28.3465 41.1727C28.3465 41.1727 28.3465 41.1727 28.3466 41.1727C28.3466 41.1727 28.3466 41.1727 28.3466 41.1727C28.3466 41.1727 28.3466 41.1727 28.3466 41.1727C28.3466 41.1727 28.3466 41.1727 28.3466 41.1727C28.3466 41.1727 28.3466 41.1727 28.3466 41.1727C28.3466 41.1727 28.3466 41.1727 28.3466 41.1727C28.3466 41.1727 28.3466 41.1727 28.3466 41.1727C28.3466 41.1727 28.3466 41.1727 28.3466 41.1727C28.3466 41.1727 28.3466 41.1727 28.3466 41.1727C28.3466 41.1727 28.3466 41.1727 28.3466 41.1727C28.3466 41.1727 28.3466 41.1727 28.3466 41.1727C28.3466 41.1727 28.3466 41.1727 28.3466 41.1727C28.3466 41.1727 28.3466 41.1727 28.3466 41.1727C28.3466 41.1727 28.3466 41.1727 28.3466 41.1727C28.3466 41.1727 28.3466 41.1727 28.3466 41.1727C28.3466 41.1727 28.3466 41.1727 28.3466 41.1727C28.3466 41.1727 28.3466 41.1727 28.3466 41.1727C28.3467 41.1727 28.3467 41.1727 28.3467 41.1727C28.3467 41.1727 28.3467 41.1727 28.3467 41.1727C28.3467 41.1727 28.3467 41.1727 28.3467 41.1727C28.3467 41.1727 28.3467 41.1727 28.3467 41.1727C28.3467 41.1727 28.3467 41.1727 28.3467 41.1727C28.3467 41.1727 28.3467 41.1727 28.3467 41.1727V38.1727ZM28.3436 38.1727V35.1727C28.105 35.1727 27.8909 35.1452 27.7402 35.1109L27.0749 38.0362L26.4097 40.9616C27.0216 41.1007 27.6833 41.1727 28.3436 41.1727V38.1727ZM27.0749 38.0362L27.8047 35.1264C27.7963 35.1242 27.8051 35.1265 27.8157 35.1292C27.8282 35.1324 27.8522 35.1388 27.8829 35.1478L27.0446 38.0282L26.2063 40.9087C26.2472 40.9206 26.2813 40.9297 26.3038 40.9356C26.3245 40.941 26.3435 40.9457 26.3452 40.9461L27.0749 38.0362ZM27.0446 38.0282L27.8846 35.1482L22.0985 33.4607L21.2585 36.3407L20.4185 39.2207L26.2046 40.9083L27.0446 38.0282ZM21.2585 36.3407L20.5084 39.2454L20.5198 39.2483L21.2699 36.3436L22.02 33.4389L22.0086 33.4359L21.2585 36.3407ZM21.2699 36.3436L22.1358 33.4713C21.7109 33.3432 21.2634 33.2755 20.8056 33.2755V36.2755V39.2755C20.6706 39.2755 20.5349 39.2554 20.4041 39.2159L21.2699 36.3436ZM20.8056 36.2755V33.2755C19.9895 33.2755 19.2046 33.4906 18.5274 33.8783L20.0181 36.4817L21.5089 39.0851C21.2849 39.2134 21.0429 39.2755 20.8056 39.2755V36.2755ZM20.0181 36.4817L18.5593 33.8603L17.5909 34.3993L19.0497 37.0207L20.5086 39.6421L21.477 39.1031L20.0181 36.4817ZM19.0497 37.0207L16.0508 36.94L16.0399 37.3468L19.0388 37.4274L22.0377 37.508L22.0486 37.1013L19.0497 37.0207ZM19.0388 37.4274H16.0388V37.4276H19.0388H22.0388V37.4274H19.0388ZM19.0388 37.4276L16.0389 37.4038C16.0497 36.0345 17.1496 34.929 18.5118 34.9033L18.5685 37.9028L18.6252 40.9022C20.5064 40.8666 22.0237 39.3401 22.0387 37.4514L19.0388 37.4276ZM18.5685 37.9028L18.6538 34.904L14.9111 34.7974L14.8257 37.7962L14.7404 40.795L18.4831 40.9015L18.5685 37.9028ZM14.8257 37.7962L14.9049 34.7973L14.9037 34.7972L14.8246 37.7962L14.7454 40.7951L14.7466 40.7952L14.8257 37.7962ZM14.8246 37.7962L14.9759 34.8C16.3095 34.8674 17.368 35.967 17.368 37.3155H14.368H11.368C11.368 39.1791 12.8309 40.6993 14.6733 40.7924L14.8246 37.7962ZM14.368 37.3155H17.368C17.368 37.3535 17.3671 37.3945 17.3649 37.4394L14.3685 37.2939L11.372 37.1484C11.3692 37.2062 11.368 37.2624 11.368 37.3155H14.368ZM14.3685 37.2939L17.3674 37.3735L17.5931 28.8678L14.5942 28.7882L11.5952 28.7086L11.3695 37.2143L14.3685 37.2939ZM14.5942 28.7882H17.5942V28.7881H14.5942H11.5942V28.7882H14.5942ZM14.5942 28.7881L17.5941 28.8016C17.5879 30.1892 16.4615 31.312 15.0725 31.312V28.312V25.312C13.1566 25.312 11.6028 26.8607 11.5942 28.7746L14.5942 28.7881ZM15.0725 28.312V31.312C15.0738 31.312 15.0671 31.312 15.0587 31.3119C15.0507 31.3119 15.0324 31.3118 15.0089 31.3112L15.0771 28.312L15.1453 25.3128C15.1204 25.3122 15.1006 25.3121 15.091 25.312C15.0811 25.312 15.0728 25.312 15.0725 25.312V28.312ZM15.0771 28.312L14.9894 31.3107L18.7195 31.4198L18.8072 28.4211L18.8949 25.4223L15.1648 25.3133L15.0771 28.312ZM18.8072 28.4211L18.7259 31.42L18.727 31.42L18.8083 28.4211L18.8896 25.4222L18.8885 25.4222L18.8072 28.4211ZM18.8083 28.4211L18.6599 31.4174C17.3246 31.3513 16.2649 30.2507 16.2649 28.9013H19.2649H22.2649C22.2649 27.0371 20.8006 25.5161 18.9567 25.4248L18.8083 28.4211ZM19.2649 28.9013H16.2649C16.2649 28.864 16.2658 28.8243 16.2678 28.7814L19.2644 28.9234L22.2611 29.0654C22.2637 29.0093 22.2649 28.9542 22.2649 28.9013H19.2649ZM19.2644 28.9234L16.2655 28.8443L16.244 29.6591L19.243 29.7381L22.2419 29.8171L22.2634 29.0024L19.2644 28.9234ZM19.243 29.7381L17.8792 27.066L17.849 27.0814L19.2128 29.7535L20.5766 32.4256L20.6068 32.4102L19.243 29.7381ZM19.2128 29.7535L20.6706 32.3755C21.0841 32.1456 21.5602 32.0135 22.0761 32.0135V29.0135V26.0135C20.514 26.0135 19.0375 26.4185 17.7551 27.1315L19.2128 29.7535ZM22.0761 29.0135V32.0135C22.5987 32.0135 23.0704 32.1488 23.4423 32.3551L24.8977 29.7318L26.3531 27.1085C25.0951 26.4105 23.6223 26.0135 22.0761 26.0135V29.0135ZM24.8977 29.7318L23.4744 32.3727L23.8205 32.5592L25.2438 29.9183L26.6671 27.2775L26.321 27.091L24.8977 29.7318ZM25.2438 29.9183L26.5855 27.2351L26.5673 27.226L25.2256 29.9093L23.8839 32.5925L23.9021 32.6016L25.2438 29.9183ZM25.2256 29.9093L23.786 32.5413C24.6568 33.0176 25.6463 33.2986 26.6951 33.3316L26.7895 30.3331L26.8839 27.3346C26.7949 27.3318 26.725 27.3099 26.6652 27.2772L25.2256 29.9093ZM26.7895 30.3331L26.7048 33.3319L30.104 33.4279L30.1887 30.4291L30.2733 27.4303L26.8742 27.3343L26.7895 30.3331ZM30.1887 30.4291L30.1048 33.4279L30.1104 33.4281L30.1942 30.4293L30.2781 27.4304L30.2725 27.4303L30.1887 30.4291ZM30.1942 30.4293L30.079 33.427C30.0802 33.4271 30.0799 33.4271 30.0784 33.4269C30.0769 33.4266 30.0749 33.4262 30.0728 33.4255C30.0683 33.424 30.0655 33.4224 30.0645 33.4217C30.0633 33.421 30.0698 33.4251 30.0765 33.4382L32.747 32.0712L35.4174 30.7041C34.4588 28.8316 32.552 27.5177 30.3095 27.4315L30.1942 30.4293ZM32.747 32.0712L34.07 34.7637L37.7546 32.9531L36.4316 30.2606L35.1085 27.5681L31.4239 29.3787L32.747 32.0712ZM18.1112 36.9116L21.1101 36.9909L21.3093 29.4625L18.3103 29.3832L15.3114 29.3039L15.1122 36.8323L18.1112 36.9116ZM18.3103 29.3832L18.3959 26.3844L15.6068 26.3048L15.5212 29.3036L15.4357 32.3024L18.2247 32.382L18.3103 29.3832ZM15.5212 29.3036L12.5223 29.2243L12.3231 36.7527L15.3221 36.832L18.321 36.9113L18.5202 29.3829L15.5212 29.3036ZM15.3221 36.832L15.2365 39.8308L18.0256 39.9104L18.1112 36.9116L18.1967 33.9128L15.4077 33.8332L15.3221 36.832ZM27.2842 37.0825L26.6351 40.0115C27.1814 40.1325 27.7682 40.1943 28.3514 40.1943V37.1943V34.1943C28.1787 34.1943 28.0286 34.1747 27.9333 34.1536L27.2842 37.0825ZM28.3514 37.1943V40.1943C29.6071 40.1943 30.8043 39.9083 31.874 39.395L30.5762 36.6902L29.2783 33.9855C29.0013 34.1184 28.6894 34.1943 28.3514 34.1943V37.1943ZM30.5762 36.6902L29.3856 33.9366L29.3547 33.95L30.5452 36.7036L31.7358 39.4572L31.7668 39.4439L30.5762 36.6902ZM30.5452 36.7036L32.2189 39.1934L40.1502 33.862L38.4766 31.3722L36.803 28.8824L28.8716 34.2138L30.5452 36.7036ZM38.4766 31.3722L40.5739 29.2272C39.7844 28.4552 38.6958 27.9749 37.5015 27.9749V30.9749V33.9749C37.0664 33.9749 36.6662 33.7978 36.3793 33.5173L38.4766 31.3722ZM37.5015 30.9749V27.9749C36.7578 27.9749 36.0488 28.1621 35.428 28.4944L36.8439 31.1392L38.2598 33.7841C38.0308 33.9067 37.7696 33.9749 37.5015 33.9749V30.9749ZM36.8439 31.1392L38.1629 33.8337L38.1704 33.8301L36.8514 31.1356L35.5323 28.4411L35.5249 28.4448L36.8439 31.1392ZM36.8514 31.1356L35.5099 28.4522L35.499 28.4577L36.8404 31.1411L38.1819 33.8244L38.1928 33.819L36.8514 31.1356ZM36.8404 31.1411L35.5174 28.4485L31.7402 30.3045L33.0632 32.9971L34.3862 35.6896L38.1634 33.8336L36.8404 31.1411ZM33.0632 32.9971L30.1111 33.5309C30.1095 33.5224 30.1088 33.5175 30.1087 33.5161C30.1085 33.5147 30.1086 33.5155 30.1089 33.5183C30.1091 33.5211 30.1094 33.5249 30.1096 33.5296C30.1098 33.5342 30.1099 33.5388 30.1099 33.5431H33.1099H36.1099C36.1099 33.1835 36.079 32.8153 36.0153 32.4633L33.0632 32.9971ZM33.1099 33.5431H30.1099C30.1099 33.5458 30.1098 33.5482 30.1098 33.5504L33.1086 33.6357L36.1073 33.721C36.109 33.6616 36.1099 33.6024 36.1099 33.5431H33.1099ZM33.1086 33.6357L36.1079 33.6976L36.108 33.693L33.1087 33.6312L30.1093 33.5693L30.1092 33.5738L33.1086 33.6357ZM33.1087 33.6312L30.1087 33.6073C30.1196 32.2418 31.2154 31.1343 32.5795 31.1071L32.6392 34.1065L32.699 37.1059C34.5808 37.0685 36.0936 35.5401 36.1086 33.655L33.1087 33.6312ZM32.6392 34.1065V31.1065H32.6388V34.1065V37.1065H32.6392V34.1065ZM32.6388 34.1065V31.1065H32.6257V34.1065V37.1065H32.6388V34.1065ZM32.6257 34.1065L32.7115 31.1078L27.1204 30.9478L27.0346 33.9465L26.9487 36.9453L32.5399 37.1053L32.6257 34.1065ZM27.0346 33.9465L27.2505 30.9543C28.547 31.0479 29.5795 32.1263 29.5795 33.4585H26.5795H23.5795C23.5795 35.3071 25.0119 36.8084 26.8187 36.9388L27.0346 33.9465ZM26.5795 33.4585H29.5795C29.5795 34.8307 28.479 35.9456 27.1113 35.9688L27.0602 32.9693L27.0092 29.9697C25.1089 30.0021 23.5795 31.5514 23.5795 33.4585H26.5795ZM27.0602 32.9693V35.9693H27.0607V32.9693V29.9693H27.0602V32.9693ZM27.0607 32.9693L26.9747 35.9681L32.0412 36.1133L32.1272 33.1145L32.2132 30.1158L27.1467 29.9705L27.0607 32.9693ZM32.1272 33.1145L35.0754 32.5592C34.6447 30.273 32.7039 28.5188 30.3079 28.4096L30.1713 31.4065L30.0348 34.4034C29.5907 34.3832 29.2523 34.0589 29.1791 33.6699L32.1272 33.1145ZM30.1713 31.4065L30.2749 28.4083L30.2703 28.4081L30.1668 31.4063L30.0633 34.4046L30.0678 34.4047L30.1713 31.4065ZM30.1668 31.4063L30.2525 28.4076L26.8509 28.3103L26.7651 31.3091L26.6794 34.3079L30.0811 34.4051L30.1668 31.4063ZM26.7651 31.3091L26.8592 28.3106C26.6198 28.3031 26.4098 28.2412 26.2268 28.1411L24.7876 30.7734L23.3484 33.4056C24.3422 33.949 25.4718 34.27 26.6711 34.3076L26.7651 31.3091ZM24.7876 30.7734L23.443 33.4552L23.466 33.4667L24.8106 30.7849L26.1552 28.1031L26.1322 28.0916L24.7876 30.7734ZM24.8106 30.7849L26.2339 28.144L25.8878 27.9575L24.4645 30.5984L23.0412 33.2392L23.3873 33.4258L24.8106 30.7849ZM24.4645 30.5984L25.9184 27.9742C24.7852 27.3464 23.4617 26.9906 22.0742 26.9906V29.9906V32.9906C22.4392 32.9906 22.7627 33.0852 23.0106 33.2225L24.4645 30.5984ZM22.0742 29.9906V26.9906C20.3648 26.9906 18.7723 27.5299 17.4693 28.4474L19.1964 30.9003L20.9236 33.3532C21.2485 33.1245 21.6413 32.9906 22.0742 32.9906V29.9906ZM19.1964 30.9003L20.8639 33.3942L20.8798 33.3836L19.2123 30.8897L17.5448 28.3958L17.5289 28.4064L19.1964 30.9003ZM19.2123 30.8897L16.2133 30.8103L16.0807 35.8157L19.0797 35.8952L22.0786 35.9746L22.2112 30.9692L19.2123 30.8897ZM19.0797 35.8952L20.5394 38.5161L21.0345 38.2403L19.5748 35.6194L18.1151 32.9985L17.6199 33.2743L19.0797 35.8952ZM19.5748 35.6194L21.0632 38.2242C20.9673 38.2789 20.8789 38.2978 20.8049 38.2978V35.2978V32.2978C19.8271 32.2978 18.8904 32.5552 18.0864 33.0146L19.5748 35.6194ZM20.8049 35.2978V38.2978C20.7611 38.2978 20.7136 38.2911 20.6662 38.2769L21.5295 35.4038L22.3927 32.5307C21.8865 32.3786 21.3525 32.2978 20.8049 32.2978V35.2978ZM21.5295 35.4038L22.28 32.4992L22.2623 32.4946L21.5117 35.3992L20.7611 38.3038L20.7789 38.3084L21.5295 35.4038ZM21.5117 35.3992L20.6718 38.2792L26.4444 39.9626L27.2842 37.0825L28.1241 34.2025L22.3515 32.5191L21.5117 35.3992Z" fill="black" fill-opacity="0.4" mask="url(#path-6-inside-2_408_15)"/>
<mask id="path-8-inside-3_408_15" fill="white">
<path d="M27.9263 14.8914V10.3099C27.8553 10.031 27.6064 9.82806 27.3101 9.82806C27.0138 9.82806 26.7649 10.031 26.6948 10.3055L26.6939 10.3099V14.891C26.7649 15.1698 27.0138 15.3728 27.3101 15.3728C27.6064 15.3728 27.8553 15.1698 27.9254 14.8954L27.9263 14.891V14.8914Z"/>
</mask>
<path d="M27.9263 14.8914V10.3099C27.8553 10.031 27.6064 9.82806 27.3101 9.82806C27.0138 9.82806 26.7649 10.031 26.6948 10.3055L26.6939 10.3099V14.891C26.7649 15.1698 27.0138 15.3728 27.3101 15.3728C27.6064 15.3728 27.8553 15.1698 27.9254 14.8954L27.9263 14.891V14.8914Z" fill="black" fill-opacity="0.4"/>
<path d="M27.9263 10.3099H30.9263V9.93401L30.8336 9.56973L27.9263 10.3099ZM26.6948 10.3055L23.7881 9.5635L23.7731 9.62207L23.7605 9.6812L26.6948 10.3055ZM26.6939 10.3099L23.7596 9.6856L23.6939 9.9943V10.3099H26.6939ZM26.6939 14.891H23.6939V15.2669L23.7867 15.6311L26.6939 14.891ZM27.9254 14.8954L30.8322 15.6374L30.847 15.5791L30.8596 15.5203L27.9254 14.8954ZM27.9263 14.891H30.9263L24.9921 14.266L27.9263 14.891ZM27.9263 14.8914H30.9263V10.3099H27.9263H24.9263V14.8914H27.9263ZM27.9263 10.3099L30.8336 9.56973C30.4352 8.0051 29.0227 6.82806 27.3101 6.82806V9.82806V12.8281C26.1901 12.8281 25.2754 12.057 25.0191 11.0501L27.9263 10.3099ZM27.3101 9.82806V6.82806C25.6096 6.82806 24.189 7.99295 23.7881 9.5635L26.6948 10.3055L29.6016 11.0475C29.3409 12.0691 28.418 12.8281 27.3101 12.8281V9.82806ZM26.6948 10.3055L23.7605 9.6812L23.7596 9.6856L26.6939 10.3099L29.6282 10.9342L29.6292 10.9298L26.6948 10.3055ZM26.6939 10.3099H23.6939V14.891H26.6939H29.6939V10.3099H26.6939ZM26.6939 14.891L23.7867 15.6311C24.185 17.1958 25.5975 18.3728 27.3101 18.3728V15.3728V12.3728C28.4301 12.3728 29.3448 13.1439 29.6012 14.1508L26.6939 14.891ZM27.3101 15.3728V18.3728C29.0107 18.3728 30.4313 17.2079 30.8322 15.6374L27.9254 14.8954L25.0186 14.1534C25.2794 13.1318 26.2022 12.3728 27.3101 12.3728V15.3728ZM27.9254 14.8954L30.8596 15.5203L30.8605 15.5159L27.9263 14.891L24.9921 14.266L24.9912 14.2704L27.9254 14.8954ZM27.9263 14.891H24.9263V14.8914H27.9263H30.9263V14.891H27.9263Z" fill="black" fill-opacity="0.4" mask="url(#path-8-inside-3_408_15)"/>
<mask id="path-10-inside-4_408_15" fill="white">
<path d="M31.0051 14.8994V12.7663C30.9304 12.4912 30.6829 12.2921 30.3888 12.2921C30.0948 12.2921 29.8473 12.4912 29.7737 12.7619L29.7726 12.7663V14.8994C29.8473 15.1746 30.0948 15.3736 30.3888 15.3736C30.6829 15.3736 30.9304 15.1746 31.004 14.9038L31.0051 14.8994Z"/>
</mask>
<path d="M31.0051 14.8994V12.7663C30.9304 12.4912 30.6829 12.2921 30.3888 12.2921C30.0948 12.2921 29.8473 12.4912 29.7737 12.7619L29.7726 12.7663V14.8994C29.8473 15.1746 30.0948 15.3736 30.3888 15.3736C30.6829 15.3736 30.9304 15.1746 31.004 14.9038L31.0051 14.8994Z" fill="black" fill-opacity="0.4"/>
<path d="M31.0051 14.8994L33.9284 15.5731L34.0051 15.2406V14.8994H31.0051ZM31.0051 12.7663H34.0051V12.3666L33.9004 11.9807L31.0051 12.7663ZM29.7737 12.7619L26.8789 11.9743L26.8636 12.0303L26.8506 12.0869L29.7737 12.7619ZM29.7726 12.7663L26.8496 12.0913L26.7726 12.4245V12.7663H29.7726ZM29.7726 14.8994H26.7726V15.2992L26.8773 15.685L29.7726 14.8994ZM31.004 14.9038L33.8988 15.6914L33.9142 15.6348L33.9274 15.5776L31.004 14.9038ZM31.0051 14.8994H34.0051V12.7663H31.0051H28.0051V14.8994H31.0051ZM31.0051 12.7663L33.9004 11.9807C33.4832 10.4432 32.0829 9.29213 30.3888 9.29213V12.2921V15.2921C29.2828 15.2921 28.3776 14.5391 28.1097 13.5519L31.0051 12.7663ZM30.3888 12.2921V9.29213C28.7068 9.29213 27.2988 10.4311 26.8789 11.9743L29.7737 12.7619L32.6684 13.5495C32.3959 14.5512 31.4828 15.2921 30.3888 15.2921V12.2921ZM29.7737 12.7619L26.8506 12.0869L26.8496 12.0913L29.7726 12.7663L32.6957 13.4414L32.6967 13.4369L29.7737 12.7619ZM29.7726 12.7663H26.7726V14.8994H29.7726H32.7726V12.7663H29.7726ZM29.7726 14.8994L26.8773 15.685C27.2945 17.2225 28.6948 18.3736 30.3888 18.3736V15.3736V12.3736C31.4949 12.3736 32.4001 13.1266 32.6679 14.1138L29.7726 14.8994ZM30.3888 15.3736V18.3736C32.0709 18.3736 33.4789 17.2347 33.8988 15.6914L31.004 14.9038L28.1093 14.1162C28.3818 13.1145 29.2949 12.3736 30.3888 12.3736V15.3736ZM31.004 14.9038L33.9274 15.5776L33.9284 15.5731L31.0051 14.8994L28.0817 14.2256L28.0807 14.2301L31.004 14.9038Z" fill="black" fill-opacity="0.4" mask="url(#path-10-inside-4_408_15)"/>
<path d="M24.8434 14.8994V12.7663C24.8022 12.4946 24.5702 12.2887 24.2902 12.2887C24.2681 12.2887 24.2462 12.2899 24.2247 12.2924L24.2274 12.2922C24.2085 12.2899 24.1867 12.2887 24.1646 12.2887C23.8845 12.2887 23.6525 12.4945 23.6117 12.7632L23.6114 12.7663V14.8994C23.6525 15.1711 23.8845 15.377 24.1646 15.377C24.1867 15.377 24.2085 15.3758 24.23 15.3733L24.2274 15.3735C24.2462 15.3757 24.2681 15.377 24.2902 15.377C24.5702 15.377 24.8022 15.1712 24.843 14.9025L24.8434 14.8994Z" fill="black" fill-opacity="0.4"/>
<path d="M24.2842 14.899L24.2364 15.2916L24.1954 14.899H24.2842ZM24.2266 13.8795C24.2871 13.8834 24.3458 13.8931 24.4024 13.9078L24.2959 14.7945L24.2149 14.8072L24.1846 14.8023L24.0899 13.899C24.1344 13.8894 24.18 13.8826 24.2266 13.8795ZM24.0821 14.1041L24.0586 13.9058C24.067 13.9037 24.0755 13.9019 24.084 13.9L24.0821 14.1041ZM24.2686 12.8629L24.3643 13.7662C24.3195 13.7759 24.2736 13.7827 24.2266 13.7857C24.1664 13.7817 24.1081 13.7721 24.0518 13.7574L24.1582 12.8697L24.2364 12.858L24.2686 12.8629ZM24.3956 13.7584C24.3868 13.7606 24.3781 13.7632 24.3692 13.7652L24.3711 13.5553L24.3956 13.7584ZM24.2588 12.7662H24.1709L24.2168 12.3756L24.2588 12.7662Z" stroke="black" stroke-opacity="0.4" stroke-width="3"/>
</svg>
