<svg width="45" height="15" viewBox="0 0 45 15" fill="none" xmlns="http://www.w3.org/2000/svg">
<path d="M23.2557 4.95893C23.2306 6.93825 25.0197 8.04271 26.3674 8.69945C27.752 9.3732 28.2171 9.80529 28.2116 10.4079C28.2013 11.33 27.1071 11.737 26.0833 11.7528C24.297 11.7805 23.2583 11.2705 22.4326 10.8848L21.7891 13.8959C22.6176 14.2777 24.1515 14.6106 25.7423 14.6252C29.4762 14.6252 31.9191 12.782 31.9323 9.92423C31.9469 6.29732 26.9156 6.09657 26.95 4.47545C26.9619 3.98389 27.4309 3.45932 28.4587 3.32595C28.9675 3.25857 30.3719 3.20701 31.9641 3.94023L32.5891 1.02695C31.7328 0.715168 30.6323 0.41662 29.2621 0.41662C25.7476 0.41662 23.2757 2.2849 23.2557 4.95893ZM38.594 0.667558C37.9122 0.667558 37.3376 1.06528 37.0812 1.6756L31.7474 14.4112H35.4786L36.2211 12.3592H40.7806L41.2113 14.4112H44.5L41.6302 0.667558H38.594ZM39.116 4.38023L40.1928 9.54112H37.2438L39.116 4.38023ZM18.7318 0.66773L15.7907 14.411H19.3463L22.286 0.667386H18.7318V0.66773ZM13.4719 0.667386L9.77111 10.022L8.27408 2.06817C8.09842 1.18026 7.40473 0.667558 6.63439 0.667558H0.584734L0.5 1.06665C1.74197 1.33615 3.15306 1.77082 4.00797 2.23592C4.53116 2.52003 4.68034 2.76839 4.85222 3.44351L7.68764 14.4112H11.445L17.2056 0.667558H13.4719" fill="url(#paint0_linear_3_82)"/>
<defs>
<linearGradient id="paint0_linear_3_82" x1="20.7286" y1="14.9102" x2="21.1398" y2="0.317805" gradientUnits="userSpaceOnUse">
<stop stop-color="#222357"/>
<stop offset="1" stop-color="#254AA5"/>
</linearGradient>
</defs>
</svg>
